<svg width="215" height="78" viewBox="0 0 215 78" fill="none" xmlns="http://www.w3.org/2000/svg">
<path d="M125.07 31.55C124.01 29.13 122.52 27.03 120.62 25.23C118.76 23.43 116.54 22.05 113.97 21.06C111.44 20.07 108.66 19.58 105.62 19.58C102.58 19.58 99.83 20.07 97.27 21.06C94.71 22.05 92.47 23.44 90.57 25.23C88.67 27.03 87.18 29.13 86.12 31.55C85.09 33.97 84.58 36.61 84.58 39.46C84.58 42.31 85.09 44.95 86.12 47.37C87.18 49.79 88.65 51.89 90.51 53.69C92.41 55.49 94.65 56.87 97.21 57.86C99.81 58.85 102.63 59.34 105.67 59.34C108.71 59.34 111.44 58.85 113.96 57.86C116.53 56.87 118.74 55.5 120.61 53.74C122.52 51.94 124 49.84 125.06 47.42C126.12 44.97 126.65 42.31 126.65 39.45C126.65 36.59 126.12 33.92 125.06 31.54L125.07 31.55ZM116.71 44.46C116.13 45.96 115.28 47.26 114.18 48.36C113.08 49.46 111.8 50.3 110.33 50.89C108.9 51.47 107.33 51.77 105.61 51.77C103.89 51.77 102.29 51.48 100.83 50.89C99.37 50.3 98.08 49.46 96.98 48.36C95.92 47.26 95.08 45.96 94.45 44.46C93.87 42.92 93.57 41.26 93.57 39.46C93.57 37.66 93.86 35.96 94.45 34.46C95.07 32.96 95.94 31.66 97.03 30.56C98.13 29.46 99.39 28.62 100.82 28.03C102.29 27.45 103.88 27.15 105.6 27.15C107.32 27.15 108.92 27.44 110.38 28.03C111.85 28.62 113.11 29.46 114.17 30.56C115.27 31.66 116.11 32.96 116.7 34.46C117.32 35.96 117.64 37.63 117.64 39.46C117.64 41.29 117.33 42.96 116.7 44.46H116.71Z" fill="#2E2E2E"/>
<path d="M171.63 31.55C170.57 29.13 169.08 27.03 167.18 25.23C165.32 23.43 163.1 22.05 160.53 21.06C158 20.07 155.22 19.58 152.18 19.58C149.14 19.58 146.39 20.07 143.83 21.06C141.27 22.05 139.03 23.44 137.13 25.23C135.23 27.03 133.74 29.13 132.68 31.55C131.65 33.97 131.14 36.61 131.14 39.46C131.14 42.31 131.65 44.95 132.68 47.37C133.74 49.79 135.21 51.89 137.07 53.69C138.97 55.49 141.21 56.87 143.77 57.86C146.37 58.85 149.19 59.34 152.23 59.34C155.27 59.34 158 58.85 160.52 57.86C163.09 56.87 165.3 55.5 167.17 53.74C169.08 51.94 170.56 49.84 171.62 47.42C172.68 44.97 173.21 42.31 173.21 39.45C173.21 36.59 172.68 33.92 171.62 31.54L171.63 31.55ZM163.28 44.46C162.7 45.96 161.85 47.26 160.75 48.36C159.65 49.46 158.37 50.3 156.9 50.89C155.47 51.47 153.9 51.77 152.18 51.77C150.46 51.77 148.86 51.48 147.4 50.89C145.94 50.3 144.65 49.46 143.55 48.36C142.49 47.26 141.65 45.96 141.02 44.46C140.44 42.92 140.14 41.26 140.14 39.46C140.14 37.66 140.43 35.96 141.02 34.46C141.64 32.96 142.51 31.66 143.6 30.56C144.7 29.46 145.96 28.62 147.39 28.03C148.86 27.45 150.45 27.15 152.17 27.15C153.89 27.15 155.49 27.44 156.95 28.03C158.42 28.62 159.68 29.46 160.74 30.56C161.84 31.66 162.68 32.96 163.27 34.46C163.89 35.96 164.21 37.63 164.21 39.46C164.21 41.29 163.9 42.96 163.27 44.46H163.28Z" fill="#2E2E2E"/>
<path d="M206.38 45.59C206.38 45.59 206.43 45.57 206.45 45.56C208.9 44.48 210.8 42.93 212.13 40.91C213.46 38.85 214.13 36.42 214.13 33.61C214.13 30.8 213.46 28.31 212.13 26.25C210.8 24.19 208.9 22.62 206.45 21.54C204 20.42 201.07 19.86 197.69 19.86H181.29V57.73H190.05V47.18H197.68C197.82 47.18 197.96 47.18 198.09 47.18L205.36 57.74H214.83L206.37 45.59H206.38ZM203.26 38.47C201.93 39.62 199.91 40.2 197.2 40.2H190.06V27H197.2C199.91 27 201.92 27.58 203.26 28.73C204.6 29.88 205.26 31.51 205.26 33.6C205.26 35.69 204.59 37.28 203.26 38.47Z" fill="#2E2E2E"/>
<path d="M30.68 10.1C29.97 9.75001 29.23 9.64002 28.5 10.06C27.59 10.58 26.9 11.34 26.21 12.11C24.72 13.77 23.21 15.43 20.59 15.34C21.9 15.65 22.95 15.33 23.93 14.57C25.1 13.67 26.11 12.62 27.08 11.52C27.61 10.91 28.27 10.45 29.05 10.2C29.89 9.93002 30.51 10.22 30.85 11.02C30.88 11.09 30.93 11.15 30.98 11.23C31.16 10.68 31.07 10.3 30.68 10.1ZM30.51 8.27002C29.25 7.98002 28.17 8.41001 27.3 9.30001C26.74 9.88001 26.29 10.57 25.79 11.21C25.31 11.82 24.85 12.46 24.33 13.05C23.69 13.77 22.88 14.24 21.89 14.29C21.27 14.32 20.64 14.29 20.02 14.29C20.09 14.32 20.16 14.36 20.25 14.4C21.53 14.88 22.72 14.69 23.82 13.88C24.92 13.07 25.67 11.95 26.46 10.87C26.99 10.14 27.55 9.45001 28.32 8.96001C28.98 8.53001 29.67 8.28002 30.47 8.50002C30.65 8.55002 30.84 8.55001 31.02 8.58001C30.87 8.43001 30.7 8.32001 30.51 8.28001V8.27002ZM29.55 0.680016C28.55 0.360016 27.63 0.560017 26.9 1.31002C26.22 1.99002 25.62 2.74002 24.99 3.47002C24.44 4.11002 23.89 4.77001 23.02 4.96001C22.11 5.15001 21.19 5.29001 20.26 5.39001C19.7 5.46001 19.18 5.58002 18.84 5.86002C19.68 5.78002 20.62 5.69001 21.55 5.62001C23.02 5.50001 24.28 5.04001 25.17 3.76001C25.65 3.06001 26.19 2.39001 26.78 1.78001C27.43 1.09001 28.26 0.720013 29.23 0.920013C29.47 0.960013 29.74 1.17001 29.84 1.37001C29.91 1.50001 29.7 1.77001 29.61 2.01001C29.96 2.18001 30.27 2.00001 30.26 1.58001C30.24 1.16001 30 0.830016 29.55 0.680016ZM28.74 19.46L28.8 19.52V19.46H28.74ZM28.7 17.79C28.34 18.43 27.84 18.71 27.06 18.61C26.31 18.52 26.05 18.82 25.99 19.59C25.97 19.79 25.96 20.01 25.88 20.18C25.81 20.32 25.63 20.47 25.5 20.47C25.36 20.47 25.21 20.32 25.1 20.2C25.03 20.13 25.06 19.98 25 19.9C24.88 19.76 24.74 19.56 24.59 19.53C23.45 19.32 22.37 20.38 22.58 21.51C22.62 21.73 22.81 21.93 22.93 22.13C22.97 22.1 23.01 22.08 23.06 22.05C23.03 21.98 23.01 21.9 22.99 21.82C22.71 20.74 23.15 20.03 24.24 19.79C24.51 19.73 24.7 19.8 24.78 20.07C24.82 20.2 24.86 20.33 24.89 20.46C24.95 20.78 25.16 20.87 25.45 20.85C25.86 20.83 26.13 20.6 26.2 20.19C26.24 19.96 26.25 19.73 26.27 19.5C26.29 19.08 26.53 18.89 26.95 18.89C27.26 18.89 27.57 18.87 27.87 18.8C28.41 18.68 28.74 18.27 28.82 17.66C28.77 17.72 28.72 17.75 28.7 17.79ZM27.63 2.91002C26.97 2.99002 26.41 3.26001 25.97 3.76001C25.67 4.09001 25.37 4.43002 25.08 4.77002C24.34 5.61002 23.44 6.22001 22.34 6.48001C22.04 6.55001 21.74 6.61001 21.43 6.67001C21.43 6.69001 21.43 6.71001 21.43 6.74001C21.76 6.70001 22.1 6.70001 22.43 6.62001C23.47 6.37001 24.35 5.84002 25.06 5.04002C25.62 4.42002 26.12 3.71002 26.96 3.43002C27.28 3.32002 27.64 3.27002 27.98 3.29002C28.26 3.31002 28.43 3.69001 28.29 3.96001C28.22 4.08001 28.01 4.11002 27.86 4.18002C27.71 4.33002 27.78 4.45001 28.05 4.44001C28.35 4.43001 28.53 4.28001 28.59 3.99001C28.74 3.30001 28.31 2.83002 27.62 2.91002H27.63ZM28.48 7.18002C28.31 6.82002 28.04 6.80001 27.76 7.17001C28.22 7.05001 28.46 7.25001 28.32 7.64001C28.24 7.88001 28.05 8.13002 27.84 8.25002C27.49 8.45002 27.1 8.57001 26.7 8.67001C25.97 8.84001 25.42 9.25001 25.1 9.92001C24.79 10.55 24.51 11.2 24.23 11.85C23.85 12.74 23.22 13.32 22.16 13.56C22.8 12.73 23.09 11.91 22.43 11.08C21.85 10.34 20.98 10.14 20.03 10.06C20.44 9.51002 20.69 8.95001 20.59 8.26001C20.41 7.16001 19.5 6.39001 18.46 6.51001C17.93 6.57001 17.59 6.87002 17.55 7.36002C18 6.89002 18.51 6.67002 19.14 6.91002C20.14 7.28002 20.58 8.65002 19.99 9.54002C19.8 9.84002 19.62 10.14 19.44 10.45C19.46 10.48 19.48 10.52 19.5 10.55C20.38 10.33 21.17 10.5 21.89 11.02C22.36 11.35 22.62 12 22.46 12.59C22.26 13.35 21.97 13.59 21.23 13.6C21.14 13.6 21.06 13.6 20.97 13.62C20.97 13.65 20.97 13.69 20.96 13.73C21.2 13.78 21.44 13.88 21.68 13.89C22.95 13.95 24.1 13.06 24.62 11.67C24.8 11.2 24.97 10.73 25.19 10.28C25.55 9.51001 26.12 8.97001 27 8.80001C27.38 8.73001 27.76 8.59002 28.09 8.40002C28.53 8.14002 28.67 7.58002 28.48 7.18002ZM0 0.140015V13.76C0.75 13.51 1.47 13.91 1.7 14.76C1.73 14.89 1.78 15.02 1.81 15.15C1.99 14.81 2.01 14.43 2.2 14.16C2.86 13.23 3.77 12.71 4.94 12.76C5.59 12.79 6.02 13.12 6.23 13.74C6.27 13.84 6.31999 13.94 6.39999 14.11C6.60999 13.66 6.54 13.32 6.27 13.03C6.04 12.78 6.08 12.56 6.33 12.4C6.75 12.1 7.16 11.77 7.64 11.6C8.83 11.16 9.80001 12.01 9.60001 13.28C9.57001 13.52 9.55 13.77 9.52 14.01C9.56 14.03 9.59 14.05 9.62 14.06C9.71 13.96 9.85 13.87 9.87 13.76C9.96 13.41 10.01 13.04 10.04 12.69C10.08 12.24 10.24 12.11 10.67 12.18C11.09 12.25 11.36 12.48 11.5 12.88C11.68 13.39 11.53 13.83 11.2 14.23C11.1 14.36 11.02 14.5 10.93 14.64C10.95 14.66 10.98 14.69 11.01 14.71C11.27 14.53 11.51 14.33 11.79 14.18C12.16 13.97 12.47 14.14 12.49 14.57C12.49 14.77 12.44 14.97 12.38 15.16C12.32 15.37 12.22 15.57 12.13 15.8C12.77 15.65 13.04 15.17 12.89 14.56C12.82 14.3 12.73 14 12.82 13.76C13.19 12.59 14.11 11.44 15.67 12.07C15.94 12.18 16.09 12.09 16.22 11.84C16.36 11.59 16.55 11.34 16.77 11.15C17.09 10.86 17.49 10.95 17.66 11.35C17.76 11.57 17.79 11.86 17.74 12.09C17.65 12.65 17.29 13.06 16.84 13.39C16.68 13.5 16.49 13.59 16.4 13.74C16.32 13.89 16.28 14.12 16.34 14.27C16.38 14.36 16.63 14.38 16.78 14.42C16.93 14.47 17.21 14.47 17.22 14.55C17.27 14.69 17.23 14.92 17.13 15.05C16.85 15.43 16.44 15.59 15.99 15.53C15.55 15.47 15.38 15.11 15.27 14.73C15.09 14.16 15.27 13.67 15.61 13.21C15.66 13.16 15.65 13.05 15.67 12.97C15.57 12.97 15.44 12.94 15.39 12.99C15.27 13.09 15.16 13.23 15.11 13.38C14.92 13.88 14.76 14.4 14.58 14.92C14.5 15.16 14.34 15.31 14.07 15.25C13.79 15.19 13.67 14.99 13.7 14.71C13.7 14.61 13.71 14.51 13.72 14.38C13.4 14.6 13.3 14.81 13.35 15.06C13.5 15.71 14.03 15.58 14.53 15.58C14.38 15.76 14.27 15.88 14.13 16.06C14.74 16.23 14.75 15.65 15.04 15.47C15.83 16.15 16.63 16.19 17.3 15.56C17.9 15.02 17.88 14.49 17.22 13.59C17.98 13.11 18.2 12.35 18.23 11.5C18.26 10.83 17.85 10.39 17.17 10.52C16.85 10.58 16.52 10.77 16.27 10.99C15.88 11.34 15.45 11.55 14.92 11.58C14.51 11.61 14.28 11.39 14.12 11.03C13.73 10.12 14.78 8.64002 15.76 8.88002C15.89 8.92002 16.03 8.91001 16.24 8.92001C15.76 8.01001 16.01 7.26002 16.56 6.59002C17.3 5.68002 18.24 5.11002 19.44 5.06002C19.9 5.04002 20.36 5.00002 20.82 5.02002C22.11 5.07002 23.14 4.57002 23.89 3.56002C24.56 2.64002 25.13 1.66001 25.76 0.710014C25.89 0.510014 26.03 0.320015 26.18 0.140015H0ZM24.53 22.71C24.4 22.42 24.32 22.11 24.21 21.8C24.03 22.05 24.04 22.31 24.2 22.6C24.65 23.43 24.39 24.06 23.49 24.36C23.25 24.45 22.99 24.5 22.75 24.58C22.64 24.62 22.55 24.69 22.45 24.75C22.47 24.81 22.49 24.86 22.51 24.92C22.98 24.79 23.49 24.72 23.92 24.52C24.72 24.16 24.9 23.5 24.53 22.71ZM22.96 22.26C22.87 22.35 22.78 22.44 22.68 22.53C22.17 23 21.58 23.2 20.89 23.01C20.31 22.85 20.27 22.78 20.54 22.25C20.83 21.67 20.68 21.2 20.06 21.04C19.55 20.91 18.99 20.82 18.47 20.88C17.78 20.97 17.12 21.23 16.74 21.89C16.76 21.93 16.79 21.98 16.81 22.02C16.94 21.95 17.07 21.89 17.19 21.82C18.02 21.3 18.88 21 19.84 21.41C20.31 21.61 20.34 21.78 20.05 22.22C19.78 22.64 19.84 22.94 20.25 23.21C20.98 23.7 22.48 23.44 22.99 22.72C23.06 22.61 23.06 22.44 23.09 22.3C23.05 22.29 23.01 22.27 22.96 22.26ZM21.08 12.55C20.99 12.56 20.83 12.74 20.85 12.8C20.88 12.91 21.01 13.06 21.11 13.07C21.21 13.07 21.32 12.92 21.52 12.76C21.3 12.65 21.18 12.54 21.08 12.55ZM20.11 12.05C20.01 12.22 19.91 12.33 19.92 12.4C19.94 12.49 20.07 12.55 20.15 12.63C20.22 12.54 20.34 12.46 20.34 12.38C20.34 12.29 20.23 12.21 20.11 12.05ZM18.9 14.04C18.6 14.08 18.56 14.3 18.62 14.56C18.91 14.64 19.08 14.53 19.12 14.26C19.12 14.19 18.97 14.04 18.9 14.04ZM13.19 16.87C13.07 16.73 12.95 16.61 12.84 16.47C12.54 16.07 12.13 15.9 11.66 15.83C10.8 15.71 10 15.85 9.23 16.27C8.8 16.51 8.34 16.73 7.87 16.89C7.48 17.03 7.27 16.81 7.34 16.45C7.39 16.16 7.46 15.86 7.16 15.68C6.83 15.49 6.47999 15.51 6.14999 15.69C5.20999 16.23 5.02 17.81 5.78 18.57C6.52 19.29 8.15999 19.75 9.00999 18.92C9.05999 18.87 9.14999 18.84 9.17999 18.83C9.29999 19.45 9.43 20.05 9.55 20.65C9.48 20.64 9.4 20.62 9.31 20.59C7.9 20.04 6.61 20.38 5.39 21.12C5.09 21.3 4.85001 21.56 4.60001 21.8C4.43001 21.96 4.41 22.1 4.66 22.24C5.06 22.49 5.1 22.81 4.7 23.06C4.3 23.31 3.83 23.48 3.36 23.6C2.84 23.74 2.3 23.77 1.77 23.87C1.32 23.96 1.01001 24.22 0.850006 24.68C1.58001 24.04 2.46001 23.97 3.35001 23.87C3.72001 23.83 4.09 23.71 4.45 23.58C5.17 23.3 5.36 22.9 5.11 22.18C5.03 21.93 5.07 21.75 5.28 21.62C5.7 21.36 6.11 21.05 6.56 20.86C7.41 20.5 8.27 20.64 9.08 21.07H8.89999C7.65999 21.16 6.63 21.68 5.81 22.61C5.61 22.83 5.47 23.17 5.42 23.47C5.31 24.05 5.23999 24.18 4.67999 24.34C2.93999 24.81 1.9 26.57 2.38 28.31C2.62 29.22 3.1 29.96 4.09 30.19C4.32 30.24 4.57999 30.17 4.81999 30.15C4.81999 30.11 4.82999 30.07 4.81999 30.02C4.66999 29.96 4.51001 29.89 4.35001 29.85C3.32001 29.58 2.65999 28.79 2.56999 27.73C2.44999 26.24 3.76001 24.65 5.24001 24.51C5.53001 24.49 5.72 24.4 5.77 24.08C6.01 22.6 6.83 21.77 8.33 21.58C8.98 21.51 9.64 21.6 10.31 21.66C10.95 21.71 11.55 21.66 12.07 21.24C12.38 20.99 12.67 20.73 12.96 20.47C14.02 19.5 14.12 17.94 13.19 16.87ZM3.78 18.05C2.91 17.91 2.14 18.21 1.41 18.62C0.930004 18.9 0.47 19.19 0 19.48V19.84C0.51 19.53 1.03 19.22 1.55 18.91C2.41 18.41 3.32999 18.2 4.31999 18.46C4.41999 18.48 4.52 18.48 4.62 18.48C4.62 18.44 4.64 18.4 4.66 18.35C4.36 18.25 4.08 18.09 3.78 18.05ZM3.58 20.15C2.51 19.82 1.52 19.96 0.610001 20.61C0.390001 20.77 0.19 20.94 0 21.12V21.51C1 20.44 2.2 19.94 3.67 20.49C3.83 20.55 4.00999 20.57 4.17999 20.6C4.24999 20.6 4.31999 20.56 4.39999 20.54C4.12999 20.35 3.85 20.24 3.58 20.15ZM3.85001 16.4C3.43001 15.69 2.78 15.3 1.97 15.3C1.26 15.3 0.6 15.49 0 15.81V16.29C0.54 16 1.11 15.79 1.72 15.7C2.54 15.58 3.27 16.03 3.48 16.81C3.55 17.1 3.52 17.42 3.55 17.74C4.01 17.48 4.16001 16.92 3.85001 16.4ZM2.73 21.54C2.08 21.08 1.16 21.04 0.479996 21.55C0.309996 21.68 0.15 21.83 0 21.99V24.62C0.06 24.57 0.109998 24.51 0.169998 24.45C0.839998 23.73 1.53 23.07 2.55 22.85C2.75 22.81 2.93 22.5 3.02 22.28C3.15 21.99 2.99 21.73 2.73 21.54ZM0.940002 25.23C0.920002 25.12 0.749994 25.04 0.649994 24.94C0.609994 25.05 0.519993 25.17 0.539993 25.26C0.669993 25.71 0.480006 25.98 0.100006 26.18C0.0700061 26.2 0.03 26.22 0 26.23V26.51C0.21 26.39 0.419995 26.25 0.619995 26.09C0.909995 25.86 1 25.56 0.940002 25.23Z" fill="black"/>
<path d="M74.96 26.14C69.61 10.47 54.96 0 38.41 0H26.18C26.03 0.18 25.89 0.37 25.76 0.57C25.13 1.52 24.56 2.5 23.89 3.42C23.14 4.43 22.11 4.93 20.82 4.88C20.36 4.86 19.9 4.9 19.44 4.92C18.24 4.97 17.3 5.54 16.56 6.45C16.01 7.12 15.76 7.87 16.24 8.78C16.03 8.78 15.89 8.78 15.76 8.74C14.78 8.5 13.73 9.98 14.12 10.89C14.28 11.25 14.51 11.47 14.92 11.44C15.45 11.41 15.88 11.2 16.27 10.85C16.52 10.63 16.85 10.44 17.17 10.38C17.85 10.25 18.26 10.69 18.23 11.36C18.2 12.21 17.98 12.97 17.22 13.45C17.88 14.35 17.9 14.88 17.3 15.42C16.63 16.05 15.83 16.01 15.04 15.33C14.75 15.51 14.74 16.09 14.13 15.92C14.27 15.74 14.38 15.62 14.53 15.44C14.03 15.44 13.5 15.57 13.35 14.92C13.3 14.67 13.4 14.46 13.72 14.24C13.71 14.37 13.7 14.47 13.7 14.57C13.67 14.85 13.79 15.05 14.07 15.11C14.34 15.17 14.5 15.02 14.58 14.78C14.76 14.26 14.92 13.74 15.11 13.24C15.16 13.09 15.27 12.95 15.39 12.85C15.44 12.8 15.57 12.84 15.67 12.83C15.65 12.91 15.66 13.02 15.61 13.07C15.27 13.53 15.09 14.02 15.27 14.59C15.38 14.97 15.55 15.33 15.99 15.39C16.44 15.45 16.85 15.29 17.13 14.91C17.23 14.78 17.27 14.55 17.22 14.41C17.21 14.33 16.93 14.33 16.78 14.28C16.63 14.24 16.38 14.22 16.34 14.13C16.28 13.98 16.32 13.75 16.4 13.6C16.49 13.45 16.68 13.36 16.84 13.25C17.29 12.92 17.65 12.51 17.74 11.95C17.79 11.72 17.76 11.43 17.66 11.21C17.49 10.81 17.09 10.72 16.77 11.01C16.55 11.2 16.36 11.45 16.22 11.7C16.09 11.95 15.94 12.04 15.67 11.93C14.11 11.3 13.19 12.45 12.82 13.62C12.73 13.86 12.82 14.16 12.89 14.42C13.04 15.03 12.77 15.51 12.13 15.66C12.22 15.43 12.32 15.23 12.38 15.02C12.44 14.83 12.5 14.63 12.49 14.43C12.47 14 12.16 13.83 11.79 14.04C11.51 14.19 11.27 14.39 11.01 14.57C10.98 14.55 10.95 14.52 10.93 14.5C11.02 14.36 11.1 14.22 11.2 14.09C11.53 13.69 11.68 13.25 11.5 12.74C11.36 12.34 11.09 12.11 10.67 12.04C10.24 11.97 10.08 12.1 10.04 12.55C10.01 12.9 9.96 13.27 9.87 13.62C9.85 13.73 9.71 13.82 9.62 13.92C9.59 13.91 9.56 13.89 9.52 13.87C9.55 13.63 9.57001 13.38 9.60001 13.14C9.80001 11.87 8.83 11.02 7.64 11.46C7.16 11.63 6.75 11.96 6.33 12.26C6.08 12.42 6.04 12.64 6.27 12.89C6.54 13.18 6.60999 13.52 6.39999 13.97C6.31999 13.8 6.27 13.7 6.23 13.6C6.02 12.98 5.59 12.65 4.94 12.62C3.77 12.57 2.86 13.09 2.2 14.02C2.01 14.29 1.99 14.67 1.81 15.01C1.78 14.88 1.73 14.75 1.7 14.62C1.47 13.77 0.75 13.37 0 13.62V15.67C0.6 15.35 1.26 15.16 1.97 15.16C2.78 15.16 3.43001 15.55 3.85001 16.26C4.16001 16.78 4.01 17.34 3.55 17.6C3.52 17.28 3.55 16.96 3.48 16.67C3.27 15.89 2.54 15.44 1.72 15.56C1.11 15.65 0.54 15.86 0 16.15V19.34C0.47 19.05 0.930004 18.76 1.41 18.48C2.14 18.07 2.91 17.77 3.78 17.91C4.08 17.95 4.36 18.11 4.66 18.21C4.64 18.26 4.63 18.3 4.62 18.34C4.52 18.34 4.41999 18.34 4.31999 18.32C3.32999 18.06 2.41 18.27 1.55 18.77C1.03 19.08 0.51 19.39 0 19.7V20.98C0.19 20.8 0.390001 20.63 0.610001 20.47C1.52 19.82 2.51 19.68 3.58 20.01C3.85 20.1 4.12999 20.21 4.39999 20.4C4.31999 20.42 4.24999 20.46 4.17999 20.46C4.00999 20.43 3.83 20.41 3.67 20.35C2.2 19.8 1 20.3 0 21.37V21.85C0.15 21.69 0.309996 21.54 0.479996 21.41C1.16 20.9 2.08 20.94 2.73 21.4C2.99 21.59 3.15 21.85 3.02 22.14C2.93 22.36 2.75 22.67 2.55 22.71C1.53 22.93 0.839998 23.59 0.169998 24.31C0.109998 24.37 0.06 24.43 0 24.48V26.09C0 26.09 0.0700061 26.06 0.100006 26.04C0.480006 25.84 0.669993 25.57 0.539993 25.12C0.519993 25.03 0.609994 24.91 0.649994 24.8C0.749994 24.9 0.920002 24.98 0.940002 25.09C1 25.42 0.909995 25.72 0.619995 25.95C0.419995 26.11 0.21 26.25 0 26.37V29.66C0.11 29.65 0.219996 29.62 0.339996 29.59C0.669996 29.49 1.03 29.39 1.37 29.39C2.12 29.38 2.63 29.96 2.36 30.65C1.96 31.7 2.82 32.36 3.78 32.25C4.41 32.17 5.06999 32.24 5.70999 32.19C5.98999 32.17 6.27 32.05 6.52 31.95C7.2 31.67 7.48999 31.76 7.95999 32.32C8.12999 32.52 8.4 32.69 8.66 32.76C10.01 33.08 11.08 32.5 11.56 31.21C11.74 30.75 11.86 30.28 12 29.82C12.12 29.43 12.37 29.19 12.78 29.23C13.17 29.28 13.38 29.11 13.56 28.8C13.67 28.6 13.82 28.43 13.95 28.24C13.56 27.98 13.1 28.02 12.69 28.42C12.23 28.86 11.83 29.35 11.41 29.84C10.84 30.51 10.28 31.2 9.36 31.42C8.81 31.57 8.30999 31.56 7.75999 31.29C7.08999 30.95 6.34 30.75 5.64 30.48C5.49 30.42 5.37 30.27 5.27 30.12C5.92 30.45 6.57 30.64 7.3 30.56C8.31 30.44 8.88 29.99 8.98 29.2C9.06 28.61 8.87 28.11 8.34 27.77C7.86 27.47 7.33999 27.28 6.75999 27.33C6.27999 27.37 5.92 27.71 5.87 28.14C5.83 28.42 5.91999 28.65 6.17999 28.78C6.44999 28.92 6.65 28.83 6.8 28.59C6.84 28.55 6.88 28.53 6.92 28.49C7.07 28.85 6.77 29.17 6.33 29.12C5.84 29.08 5.49 28.62 5.66 28.09C5.76 27.77 5.99 27.41 6.27 27.22C7.11 26.66 8.49 27.08 9.06 28.03C9.58 28.91 9.28 30.07 8.38 30.62C8.21 30.73 8.04 30.83 7.84 30.96C8.21 31.25 8.55 31.35 8.97 31.22C9.91 30.91 10.61 30.3 11.22 29.55C11.62 29.05 12.06 28.59 12.49 28.13C12.97 27.64 13.53 27.56 14.18 27.83C14.38 27.92 14.64 27.9 14.88 27.9C15.6 27.91 16.34 27.83 17.05 27.93C17.85 28.03 18.22 28.56 18.26 29.33C18.31 30.1 17.66 30.7 16.89 30.59C16.37 30.51 16.07 30.02 16.26 29.53C16.39 29.19 16.64 29.13 16.95 29.4C16.83 29.62 16.51 29.85 16.91 30.1C17.17 30.26 17.53 30.15 17.77 29.86C18.1 29.46 18.01 28.93 17.56 28.64C16.7 28.07 15.02 28.08 14.18 28.66C13.8 28.91 13.58 29.25 13.64 29.72C13.68 30.18 13.98 30.44 14.38 30.6C14.61 30.69 14.84 30.77 15.16 30.89C14.17 31.19 13.72 30.95 13.38 30.14C13.29 29.9 13.08 29.72 12.93 29.52C12.72 29.69 12.44 29.83 12.31 30.06C12.13 30.35 12.04 30.7 11.95 31.04C11.6 32.37 10.85 33.02 9.49001 33.1C9.11001 33.12 9.08 33.24 9.23 33.55C9.51 34.18 9.72 34.83 9.5 35.55C9.48 35.62 9.6 35.78 9.69 35.85C9.87 35.95 10.07 36 10.24 36.1C10.88 36.46 11.26 37.26 11.14 37.96C11.05 38.43 10.84 38.57 10.38 38.52C10.26 38.51 10.12 38.59 9.99001 38.64C10.05 38.79 10.06 39 10.17 39.08C10.76 39.5 11.43 39.73 12.15 39.72C12.49 39.7 12.83 39.67 13.27 39.64C13.15 39.85 13.09 40.03 12.95 40.14C11.67 41.17 9.36999 41.25 8.06999 40.26C7.52999 39.84 7.08 39.3 6.64 38.76C6.35 38.4 6.37 37.92 6.52 37.49C6.69 36.95 6.85 36.42 7.11 35.93C8.08 34.01 6.33 32.46 4.75 32.52C4.37 32.54 3.99 32.63 3.62 32.66C3.44 32.68 3.26999 32.66 3.03999 32.66C3.83999 35.01 3.52 37.14 1.61 38.9C1.63 38.93 1.65 38.96 1.67 38.99C2.02 38.96 2.38 38.91 2.73 38.92C3.56 38.93 4.21 39.57 4.09 40.35C4.04 40.73 3.78999 41.11 3.53999 41.41C3.23999 41.79 3.03999 42.14 3.25999 42.63C3.46999 43.12 3.83 43.31 4.37 43.33C4.67 43.35 5.00001 43.56 5.24001 43.77C5.59001 44.09 5.94 44.36 6.42 44.43C6.82 44.49 7.14999 44.35 7.31999 44.01C7.41999 43.81 7.45 43.5 7.37 43.3C7.32 43.19 6.97 43.13 6.77 43.17C6.39 43.24 6.09 43.24 5.92 42.83C5.78 42.44 5.89 42.18 6.33 41.94C6.82 41.66 7.35 41.57 7.89 41.72C8.26 41.82 8.62999 41.93 8.95999 42.09C9.82999 42.49 10.11 43.02 9.83 43.92C9.65 44.48 9.3 44.98 9 45.48C8.93 45.6 8.77001 45.67 8.74001 45.69C9.03001 46.27 9.32 46.72 9.48 47.2C9.75 48 9.04999 49.14 8.20999 49.18C8.07999 49.19 7.89999 49.26 7.81999 49.37C7.28999 50.15 6.47999 50.24 5.64999 50.18C4.69999 50.12 4.05 49.65 3.94 48.57C3.86 47.95 3.58 47.79 2.98 47.95C2.39 48.1 1.97999 48.48 1.67999 48.99C1.61999 49.08 1.66 49.28 1.72 49.4C1.81 49.59 1.99 49.74 2.09 49.93C2.3 50.38 2.18 50.82 1.78 51.11C1.31 51.46 0.66 51.64 0 51.65V76.69H43.82C44.25 76.64 44.69 76.57 45.12 76.5C46.33 76.29 47.52 76.03 48.68 75.71C69.72 70.01 82.18 47.23 74.96 26.14ZM28.8 19.38L28.74 19.32H28.8V19.38ZM19.84 21.27C18.88 20.86 18.02 21.16 17.19 21.68C17.07 21.75 16.94 21.81 16.81 21.88C16.79 21.84 16.76 21.79 16.74 21.75C17.12 21.09 17.78 20.83 18.47 20.74C18.99 20.68 19.55 20.77 20.06 20.9C20.68 21.06 20.83 21.53 20.54 22.11C20.27 22.64 20.31 22.71 20.89 22.87C21.58 23.06 22.17 22.86 22.68 22.39C22.78 22.3 22.87 22.21 22.96 22.12C23.01 22.13 23.05 22.15 23.09 22.16C23.06 22.3 23.06 22.47 22.99 22.58C22.48 23.3 20.98 23.56 20.25 23.07C19.84 22.8 19.78 22.5 20.05 22.08C20.34 21.64 20.31 21.47 19.84 21.27ZM22.75 24.44C22.99 24.36 23.25 24.31 23.49 24.22C24.39 23.92 24.65 23.29 24.2 22.46C24.04 22.17 24.03 21.91 24.21 21.66C24.32 21.97 24.4 22.28 24.53 22.57C24.9 23.36 24.72 24.02 23.92 24.38C23.49 24.58 22.98 24.65 22.51 24.78C22.49 24.72 22.47 24.67 22.45 24.61C22.55 24.55 22.64 24.48 22.75 24.44ZM24.24 19.65C23.15 19.89 22.71 20.6 22.99 21.68C23.01 21.76 23.03 21.84 23.06 21.91C23.01 21.94 22.97 21.96 22.93 21.99C22.81 21.79 22.62 21.59 22.58 21.37C22.37 20.24 23.45 19.18 24.59 19.39C24.74 19.42 24.88 19.62 25 19.76C25.06 19.84 25.03 19.99 25.1 20.06C25.21 20.18 25.36 20.34 25.5 20.33C25.63 20.33 25.81 20.18 25.88 20.04C25.96 19.87 25.97 19.65 25.99 19.45C26.05 18.68 26.31 18.38 27.06 18.47C27.84 18.57 28.34 18.29 28.7 17.65C28.72 17.61 28.77 17.58 28.82 17.52C28.74 18.13 28.41 18.54 27.87 18.66C27.57 18.73 27.26 18.75 26.95 18.75C26.53 18.75 26.29 18.94 26.27 19.36C26.25 19.59 26.24 19.82 26.2 20.05C26.13 20.46 25.86 20.69 25.45 20.71C25.16 20.73 24.95 20.64 24.89 20.32C24.86 20.19 24.82 20.06 24.78 19.93C24.7 19.66 24.51 19.59 24.24 19.65ZM30.98 11.09C30.93 11.01 30.88 10.95 30.85 10.88C30.51 10.08 29.89 9.79 29.05 10.06C28.27 10.31 27.61 10.77 27.08 11.38C26.11 12.48 25.1 13.53 23.93 14.43C22.95 15.19 21.9 15.51 20.59 15.2C23.21 15.29 24.72 13.63 26.21 11.97C26.9 11.2 27.59 10.44 28.5 9.92C29.23 9.5 29.97 9.61 30.68 9.96C31.07 10.16 31.16 10.54 30.98 11.09ZM31.02 8.43C30.84 8.4 30.65 8.4 30.47 8.35C29.67 8.13 28.98 8.38 28.32 8.81C27.55 9.3 26.99 9.99 26.46 10.72C25.67 11.8 24.92 12.92 23.82 13.73C22.72 14.54 21.53 14.73 20.25 14.25C20.16 14.21 20.09 14.17 20.02 14.14C20.64 14.14 21.27 14.18 21.89 14.14C22.88 14.09 23.69 13.62 24.33 12.9C24.85 12.31 25.31 11.67 25.79 11.06C26.29 10.42 26.74 9.73 27.3 9.15C28.17 8.26 29.25 7.83 30.51 8.12C30.7 8.16 30.87 8.27 31.02 8.42V8.43ZM19.92 12.26C19.91 12.19 20.01 12.08 20.11 11.91C20.23 12.07 20.34 12.15 20.34 12.24C20.34 12.32 20.22 12.4 20.15 12.49C20.07 12.41 19.94 12.35 19.92 12.26ZM20.85 12.66C20.83 12.6 20.99 12.42 21.08 12.41C21.18 12.4 21.3 12.51 21.52 12.62C21.32 12.78 21.21 12.93 21.11 12.93C21.01 12.92 20.88 12.77 20.85 12.66ZM27.99 3.15C27.65 3.13 27.29 3.18 26.97 3.29C26.13 3.57 25.63 4.28 25.07 4.9C24.36 5.7 23.48 6.23 22.44 6.48C22.11 6.56 21.77 6.56 21.44 6.6C21.44 6.57 21.44 6.55 21.44 6.53C21.75 6.47 22.05 6.41 22.35 6.34C23.45 6.08 24.35 5.47 25.09 4.63C25.38 4.29 25.68 3.95 25.98 3.62C26.42 3.12 26.98 2.85 27.64 2.77C28.33 2.69 28.76 3.16 28.61 3.85C28.55 4.14 28.37 4.29 28.07 4.3C27.8 4.31 27.73 4.19 27.88 4.04C28.03 3.97 28.24 3.94 28.31 3.82C28.45 3.55 28.28 3.17 28 3.15H27.99ZM20.26 5.25C21.19 5.15 22.11 5.01 23.02 4.82C23.89 4.63 24.44 3.97 24.99 3.33C25.62 2.6 26.22 1.85 26.9 1.17C27.63 0.419998 28.55 0.220001 29.55 0.540001C30 0.690001 30.24 1.02 30.26 1.44C30.27 1.86 29.96 2.04 29.61 1.87C29.7 1.63 29.91 1.36 29.84 1.23C29.74 1.03 29.47 0.819999 29.23 0.779999C28.26 0.579999 27.43 0.949999 26.78 1.64C26.19 2.25 25.65 2.92 25.17 3.62C24.28 4.9 23.02 5.36 21.55 5.48C20.62 5.55 19.68 5.64 18.84 5.72C19.18 5.44 19.7 5.32 20.26 5.25ZM17.55 7.22C17.59 6.73 17.93 6.43 18.46 6.37C19.5 6.25 20.41 7.02 20.59 8.12C20.69 8.81 20.44 9.37 20.03 9.92C20.98 10 21.85 10.2 22.43 10.94C23.09 11.77 22.8 12.59 22.16 13.42C23.22 13.18 23.85 12.6 24.23 11.71C24.51 11.06 24.79 10.41 25.1 9.78C25.42 9.11 25.97 8.7 26.7 8.53C27.1 8.43 27.49 8.31 27.84 8.11C28.05 7.99 28.24 7.74 28.32 7.5C28.46 7.11 28.22 6.91 27.76 7.03C28.04 6.66 28.31 6.68 28.48 7.04C28.67 7.44 28.53 8 28.09 8.26C27.76 8.45 27.38 8.59 27 8.66C26.12 8.83 25.55 9.37 25.19 10.14C24.97 10.59 24.8 11.06 24.62 11.53C24.1 12.92 22.95 13.81 21.68 13.75C21.44 13.74 21.2 13.64 20.96 13.59C20.97 13.55 20.97 13.51 20.97 13.48C21.06 13.47 21.14 13.46 21.23 13.46C21.97 13.45 22.26 13.21 22.46 12.45C22.62 11.86 22.36 11.21 21.89 10.88C21.17 10.36 20.38 10.19 19.5 10.41C19.48 10.38 19.46 10.34 19.44 10.31C19.62 10 19.8 9.7 19.99 9.4C20.58 8.51 20.14 7.14 19.14 6.77C18.51 6.53 18 6.75 17.55 7.22ZM19.12 14.12C19.08 14.39 18.91 14.5 18.62 14.42C18.56 14.16 18.6 13.94 18.9 13.9C18.97 13.9 19.13 14.05 19.12 14.12ZM5.77 23.94C5.72 24.26 5.53001 24.35 5.24001 24.37C3.76001 24.51 2.44999 26.1 2.56999 27.59C2.65999 28.65 3.32001 29.44 4.35001 29.71C4.51001 29.75 4.66999 29.82 4.81999 29.88C4.82999 29.93 4.81999 29.97 4.81999 30.01C4.57999 30.03 4.32 30.1 4.09 30.05C3.1 29.82 2.62 29.08 2.38 28.17C1.9 26.43 2.93999 24.67 4.67999 24.2C5.23999 24.04 5.31 23.91 5.42 23.33C5.47 23.03 5.61 22.69 5.81 22.47C6.63 21.54 7.65999 21.02 8.89999 20.94H9.08C8.27 20.5 7.41 20.36 6.56 20.72C6.11 20.91 5.7 21.22 5.28 21.48C5.07 21.61 5.03 21.79 5.11 22.04C5.36 22.76 5.17 23.16 4.45 23.44C4.09 23.57 3.72001 23.69 3.35001 23.73C2.46001 23.83 1.58001 23.9 0.850006 24.54C1.01001 24.08 1.32 23.82 1.77 23.73C2.3 23.63 2.84 23.6 3.36 23.46C3.83 23.34 4.3 23.17 4.7 22.92C5.1 22.67 5.06 22.35 4.66 22.1C4.41 21.96 4.43001 21.82 4.60001 21.66C4.85001 21.42 5.09 21.16 5.39 20.98C6.61 20.24 7.9 19.9 9.31 20.45C9.4 20.48 9.48 20.5 9.55 20.51C9.43 19.91 9.29999 19.31 9.17999 18.69C9.14999 18.7 9.05999 18.73 9.00999 18.78C8.15999 19.61 6.52 19.15 5.78 18.43C5.02 17.67 5.20999 16.09 6.14999 15.55C6.47999 15.37 6.83 15.35 7.16 15.54C7.46 15.72 7.39 16.02 7.34 16.31C7.27 16.67 7.48 16.89 7.87 16.75C8.34 16.59 8.8 16.37 9.23 16.13C10 15.71 10.8 15.57 11.66 15.69C12.13 15.76 12.54 15.93 12.84 16.33C12.95 16.47 13.07 16.59 13.19 16.73C14.12 17.8 14.02 19.36 12.96 20.33C12.67 20.59 12.38 20.85 12.07 21.1C11.55 21.52 10.95 21.57 10.31 21.52C9.64 21.46 8.98 21.37 8.33 21.44C6.83 21.63 6.01 22.46 5.77 23.94ZM11.28 44.2C11.11 44.23 10.93 44.24 10.76 44.23C10.5 44.21 10.18 44.19 10.17 43.86C10.16 43.67 10.35 43.46 10.49 43.16C10.35 42.92 10.44 42.72 10.84 42.61C11.25 42.51 11.66 42.73 11.81 43.13C11.85 43.26 11.89 43.39 11.96 43.59C12.56 43.14 13.12 42.74 13.68 42.32C13.99 42.09 14.28 41.85 14.59 41.64C15.17 41.22 15.82 40.96 16.55 40.92C16.98 40.91 17.08 40.76 16.94 40.34C16.87 40.12 16.74 39.89 16.58 39.73C16.14 39.29 15.71 39.36 15.38 39.88C15.34 39.95 15.29 40.01 15.24 40.07C15.21 40.07 15.16 40.06 15.12 40.05C15.15 39.86 15.12 39.65 15.21 39.48C15.36 39.18 15.64 39.09 15.96 39.09C16.76 39.12 17.4 39.86 17.38 40.69C17.34 42.13 15.8 43.29 14.37 42.92C13.97 42.82 13.67 42.88 13.36 43.13C12.74 43.63 12.07 44.03 11.28 44.2ZM28.99 37.82C28.91 38.07 28.86 38.34 28.8 38.6C28.72 38.99 28.63 39.38 28.4 39.73C28.2 40.04 28 40.35 27.79 40.65C27.13 41.55 26.21 41.83 25.14 41.67C24.71 41.6 24.46 41.72 24.31 42.15C24.18 42.52 24.01 42.89 23.78 43.19C23.37 43.73 22.85 44.06 22.12 43.88C21.98 43.85 21.8 43.9 21.65 43.91C21.37 43.93 21.08 43.98 20.8 43.96C20.27 43.92 19.94 43.6 19.94 43.06C19.95 42.62 20.06 42.18 20.11 41.74C20.13 41.57 20.16 41.39 20.15 41.21C20.13 40.93 19.93 40.75 19.67 40.77C19.53 40.77 19.35 40.95 19.3 41.09C18.95 41.92 18.53 42.68 17.85 43.28C16.93 44.1 15.9 44.59 14.62 44.34C14.2 44.26 13.81 44.1 13.5 43.66C13.66 43.67 13.74 43.67 13.82 43.69C15.92 44.31 17.54 43.65 18.61 41.74C19.17 40.71 19.35 39.63 18.78 38.55C17.86 36.77 15.31 36.54 14.06 38.11C13.4 38.94 13.54 40.02 14.38 40.56C14.94 40.92 15.34 40.77 15.5 40.14C15.51 40.11 15.56 40.08 15.6 40.04C15.81 40.27 15.75 40.48 15.62 40.69C15.32 41.11 14.73 41.18 14.23 40.87C13.19 40.22 12.95 38.85 13.77 37.9C14.64 36.91 15.73 36.49 17.06 36.79C17.24 36.83 17.42 36.92 17.6 36.96C17.79 37.01 18 37.04 18.2 37.07C18.25 36.81 18.4 36.5 18.31 36.26C18.14 35.75 17.87 35.28 17.61 34.81C17.29 34.21 16.93 33.65 16.92 32.92C16.92 32.6 16.61 32.64 16.39 32.61C15.56 32.46 15.17 31.98 15.24 31C15.35 31.17 15.42 31.28 15.47 31.39C15.81 32.11 16.65 32.46 17.38 32.15C17.53 32.08 17.66 31.9 17.74 31.73C18.05 31.07 18.46 30.8 19.19 30.93C19.89 31.04 20.5 30.77 21.12 30.56C21.6 30.39 21.84 29.74 21.63 29.26C21.49 28.94 21.6 28.85 21.89 28.81C22.52 28.7 22.93 28.33 23.11 27.71C23.35 26.86 22.84 26.14 21.93 26.05C21.92 26.07 21.89 26.11 21.89 26.15C22.03 26.94 21.68 27.49 21.02 27.85C20.31 28.24 19.6 28.29 18.91 27.77C18.52 27.48 18.09 27.38 17.61 27.43C17.47 27.46 17.32 27.47 17.17 27.46C16.35 27.37 16.07 26.87 16.41 26.12C16.8 25.25 16.57 24.85 15.61 24.72C14.87 24.63 14.25 24.91 13.68 25.33C12.97 25.86 12.28 26.45 11.54 26.94C11.12 27.21 10.62 27.42 10.14 27.5C9.45 27.61 8.76999 27.17 8.53999 26.61C8.31999 26.09 8.52999 25.36 9.03999 24.89C9.54999 24.42 10.2 24.33 10.84 24.23C11.53 24.12 12.25 24.05 12.92 23.84C14.38 23.37 14.94 22.27 14.54 20.79C14.18 19.53 14.35 18.41 15.39 17.51C15.82 17.16 16.31 16.93 16.87 16.89C17.53 16.84 18.19 16.78 18.85 16.76C19.6 16.74 20.27 16.55 20.81 16.01C20.87 15.95 20.96 15.93 21.04 15.89C21.06 15.91 21.1 15.94 21.13 15.97C21.01 16.14 20.92 16.38 20.76 16.47C20.29 16.7 19.81 16.92 19.3 17.07C18.97 17.16 18.87 17.28 18.86 17.64C18.85 17.99 18.66 18.31 18.56 18.66C18.35 18.5 18.12 18.34 17.88 18.16C17.75 19.02 17.68 19.94 16.96 20.62C16.84 20.2 16.74 19.81 16.63 19.43C16.59 19.46 16.55 19.48 16.51 19.5C16.62 20.01 16.67 20.5 16.29 20.97C16.19 20.82 16.11 20.68 16.01 20.56C15.81 20.3 15.59 20.06 15.2 20.14C15.14 20.14 14.98 20.01 14.96 19.92C14.89 19.53 15.07 19.22 15.35 18.96C15.59 18.72 15.77 18.44 16 18.21C16.23 17.98 16.49 17.8 16.75 17.62C16.92 17.5 17.11 17.42 17.28 17.33C17.28 17.28 17.27 17.25 17.26 17.21C17.14 17.19 17.01 17.14 16.9 17.17C15.01 17.61 14.29 19.19 14.75 20.59C15.25 22.13 14.76 23.27 13.33 24.08C13.16 24.17 12.98 24.3 12.87 24.45C12.79 24.56 12.74 24.8 12.81 24.88C12.89 24.98 13.12 25.04 13.25 25.01C13.82 24.86 14.36 24.59 14.92 24.5C15.39 24.44 15.9 24.48 16.35 24.61C16.64 24.68 16.87 25 17.15 25.22C17.6 24.91 17.77 24.41 17.59 23.79C17.56 23.65 17.56 23.49 17.55 23.34C17.74 23.34 17.97 23.28 18.09 23.37C18.32 23.52 18.56 23.74 18.63 23.98C18.79 24.54 18.86 25.12 18.96 25.71C19.42 25.35 19.38 24.86 19.18 24.29C19.86 24.57 19.9 25.18 20.17 25.7C20.19 25.37 20.21 25.05 20.22 24.7C20.97 24.76 21.01 25.36 21.21 25.85C21.42 25.77 21.61 25.68 21.81 25.6C22.25 25.44 22.62 25.53 22.94 25.88C23.87 26.91 23.71 28.33 22.56 29.07C22.07 29.39 21.99 29.91 21.77 30.37C21.74 30.41 21.91 30.64 22.01 30.65C22.57 30.73 23.07 30.87 23.33 31.45C23.36 31.52 23.53 31.54 23.65 31.54C24.65 31.57 25.23 32 25.62 32.94C25.68 33.08 25.87 33.23 26.01 33.25C27.18 33.38 28.26 34.11 28.8 35.16C29.2 35.92 29.31 36.84 28.99 37.82Z" fill="black"/>
<path d="M28.8 19.46V19.52L28.7401 19.46H28.8Z" fill="white"/>
<path d="M0.459991 76.83C0.349991 76.9 0.21 76.98 0 77.11V76.83H0.459991Z" fill="#2E2E2E"/>
<path d="M17.3801 40.83C17.3401 42.27 15.8001 43.43 14.3701 43.06C13.9701 42.96 13.6701 43.02 13.3601 43.27C12.7401 43.77 12.0701 44.17 11.2801 44.34C11.1101 44.37 10.9301 44.38 10.7601 44.37C10.5001 44.35 10.1801 44.33 10.1701 44C10.1601 43.81 10.3501 43.6 10.4901 43.3C10.3501 43.06 10.4401 42.86 10.8401 42.75C11.2501 42.65 11.6601 42.87 11.8101 43.27C11.8501 43.4 11.89 43.53 11.96 43.73C12.5601 43.28 13.1201 42.88 13.6801 42.46C13.9901 42.23 14.2801 41.99 14.5901 41.78C15.1701 41.36 15.8201 41.1 16.5501 41.06C16.9801 41.05 17.0801 40.9 16.9401 40.48C16.8701 40.26 16.7401 40.03 16.5801 39.87C16.1401 39.43 15.7101 39.5 15.3801 40.02C15.3401 40.09 15.2901 40.15 15.2401 40.21C15.2101 40.21 15.1601 40.2 15.1201 40.19C15.1501 40 15.1201 39.79 15.2101 39.62C15.3601 39.32 15.6401 39.23 15.9601 39.23C16.7601 39.26 17.4001 40 17.3801 40.83Z" fill="#2E2E2E"/>
<path d="M18.26 29.47C18.31 30.24 17.66 30.84 16.89 30.73C16.37 30.65 16.07 30.16 16.26 29.67C16.39 29.33 16.64 29.27 16.95 29.54C16.83 29.76 16.51 29.99 16.91 30.24C17.17 30.4 17.53 30.29 17.77 30C18.1 29.6 18.01 29.07 17.56 28.78C16.7 28.21 15.02 28.22 14.18 28.8C13.8 29.05 13.58 29.39 13.64 29.86C13.68 30.32 13.98 30.58 14.38 30.74C14.61 30.83 14.84 30.91 15.16 31.03C14.17 31.33 13.72 31.09 13.38 30.28C13.29 30.04 13.08 29.86 12.93 29.66C12.72 29.83 12.44 29.97 12.31 30.2C12.13 30.49 12.04 30.84 11.95 31.18C11.6 32.51 10.85 33.16 9.49001 33.24C9.11001 33.26 9.08 33.38 9.23 33.69C9.51 34.32 9.72 34.97 9.5 35.69C9.48 35.76 9.6 35.92 9.69 35.99C9.87 36.09 10.07 36.14 10.24 36.24C10.88 36.6 11.26 37.4 11.14 38.1C11.05 38.57 10.84 38.71 10.38 38.66C10.26 38.65 10.12 38.73 9.99001 38.78C10.05 38.93 10.06 39.14 10.17 39.22C10.76 39.64 11.43 39.87 12.15 39.86C12.49 39.84 12.83 39.81 13.27 39.78C13.15 39.99 13.09 40.17 12.95 40.28C11.67 41.31 9.36999 41.39 8.06999 40.4C7.52999 39.98 7.08 39.44 6.64 38.9C6.35 38.54 6.37 38.06 6.52 37.63C6.69 37.09 6.85 36.56 7.11 36.07C8.08 34.15 6.33 32.6 4.75 32.66C4.37 32.68 3.99 32.77 3.62 32.8C3.44 32.82 3.26999 32.8 3.03999 32.8C3.83999 35.15 3.52 37.28 1.61 39.04C1.63 39.07 1.65 39.1 1.67 39.13C2.02 39.1 2.38 39.05 2.73 39.06C3.56 39.07 4.21 39.71 4.09 40.49C4.04 40.87 3.78999 41.25 3.53999 41.55C3.23999 41.93 3.03999 42.28 3.25999 42.77C3.46999 43.26 3.83 43.45 4.37 43.47C4.67 43.49 5.00001 43.7 5.24001 43.91C5.59001 44.23 5.94 44.5 6.42 44.57C6.82 44.63 7.14999 44.49 7.31999 44.15C7.41999 43.95 7.45 43.64 7.37 43.44C7.32 43.33 6.97 43.27 6.77 43.31C6.39 43.38 6.09 43.38 5.92 42.97C5.78 42.58 5.89 42.32 6.33 42.08C6.82 41.8 7.35 41.71 7.89 41.86C8.26 41.96 8.62999 42.07 8.95999 42.23C9.82999 42.63 10.11 43.16 9.83 44.06C9.65 44.62 9.3 45.12 9 45.62C8.93 45.74 8.77001 45.81 8.74001 45.83C9.03001 46.41 9.32 46.86 9.48 47.34C9.75 48.14 9.04999 49.28 8.20999 49.32C8.07999 49.33 7.89999 49.4 7.81999 49.51C7.28999 50.29 6.47999 50.38 5.64999 50.32C4.69999 50.26 4.05 49.79 3.94 48.71C3.86 48.09 3.58 47.93 2.98 48.09C2.39 48.24 1.97999 48.62 1.67999 49.13C1.61999 49.22 1.66 49.42 1.72 49.54C1.81 49.73 1.99 49.88 2.09 50.07C2.3 50.52 2.18 50.96 1.78 51.25C1.31 51.6 0.66 51.78 0 51.79V29.8C0.11 29.79 0.219996 29.76 0.339996 29.73C0.669996 29.63 1.03 29.53 1.37 29.53C2.12 29.52 2.63 30.1 2.36 30.79C1.96 31.84 2.82 32.5 3.78 32.39C4.41 32.31 5.06999 32.38 5.70999 32.33C5.98999 32.31 6.27 32.19 6.52 32.09C7.2 31.81 7.48999 31.9 7.95999 32.46C8.12999 32.66 8.4 32.83 8.66 32.9C10.01 33.22 11.08 32.64 11.56 31.35C11.74 30.89 11.86 30.42 12 29.96C12.12 29.57 12.37 29.33 12.78 29.37C13.17 29.42 13.38 29.25 13.56 28.94C13.67 28.74 13.82 28.57 13.95 28.38C13.56 28.12 13.1 28.16 12.69 28.56C12.23 29 11.83 29.49 11.41 29.98C10.84 30.65 10.28 31.34 9.36 31.56C8.81 31.71 8.30999 31.7 7.75999 31.43C7.08999 31.09 6.34 30.89 5.64 30.62C5.49 30.56 5.37 30.41 5.27 30.26C5.92 30.59 6.57 30.78 7.3 30.7C8.31 30.58 8.88 30.13 8.98 29.34C9.06 28.75 8.87 28.25 8.34 27.91C7.86 27.61 7.33999 27.42 6.75999 27.47C6.27999 27.51 5.92 27.85 5.87 28.28C5.83 28.56 5.91999 28.79 6.17999 28.92C6.44999 29.06 6.65 28.97 6.8 28.73C6.84 28.69 6.88 28.67 6.92 28.63C7.07 28.99 6.77 29.31 6.33 29.26C5.84 29.22 5.49 28.76 5.66 28.23C5.76 27.91 5.99 27.55 6.27 27.36C7.11 26.8 8.49 27.22 9.06 28.17C9.58 29.05 9.28 30.21 8.38 30.76C8.21 30.87 8.04 30.97 7.84 31.1C8.21 31.39 8.55 31.49 8.97 31.36C9.91 31.05 10.61 30.44 11.22 29.69C11.62 29.19 12.06 28.73 12.49 28.27C12.97 27.78 13.53 27.7 14.18 27.97C14.38 28.06 14.64 28.04 14.88 28.04C15.6 28.05 16.34 27.97 17.05 28.07C17.85 28.17 18.22 28.7 18.26 29.47Z" fill="#2E2E2E"/>
<path d="M28.8 35.3V38.74C28.72 39.13 28.63 39.52 28.4 39.87C28.2 40.18 28 40.49 27.79 40.79C27.13 41.69 26.21 41.97 25.14 41.81C24.71 41.74 24.46 41.86 24.31 42.29C24.18 42.66 24.01 43.03 23.78 43.33C23.37 43.87 22.85 44.2 22.12 44.02C21.98 43.99 21.8 44.04 21.65 44.05C21.37 44.07 21.08 44.12 20.8 44.1C20.27 44.06 19.94 43.74 19.94 43.2C19.95 42.76 20.06 42.32 20.11 41.88C20.13 41.71 20.16 41.53 20.15 41.35C20.13 41.07 19.93 40.89 19.67 40.91C19.53 40.91 19.35 41.09 19.3 41.23C18.95 42.06 18.5301 42.82 17.8501 43.42C16.9301 44.24 15.9 44.73 14.62 44.48C14.2 44.4 13.81 44.24 13.5 43.8C13.66 43.81 13.74 43.81 13.82 43.83C15.92 44.45 17.54 43.79 18.61 41.88C19.17 40.85 19.35 39.77 18.78 38.69C17.86 36.91 15.31 36.68 14.06 38.25C13.4 39.08 13.5401 40.16 14.3801 40.7C14.9401 41.06 15.34 40.91 15.5 40.28C15.51 40.25 15.5601 40.22 15.6001 40.18C15.8101 40.41 15.75 40.62 15.62 40.83C15.32 41.25 14.73 41.32 14.23 41.01C13.19 40.36 12.9501 38.99 13.7701 38.04C14.6401 37.05 15.73 36.63 17.06 36.93C17.24 36.97 17.4201 37.06 17.6001 37.1C17.7901 37.15 18 37.18 18.2 37.21C18.25 36.95 18.4 36.64 18.31 36.4C18.14 35.89 17.87 35.42 17.61 34.95C17.29 34.35 16.93 33.79 16.92 33.06C16.92 32.74 16.61 32.78 16.39 32.75C15.56 32.6 15.1701 32.12 15.2401 31.14C15.3501 31.31 15.42 31.42 15.47 31.53C15.81 32.25 16.6501 32.6 17.3801 32.29C17.5301 32.22 17.6601 32.04 17.7401 31.87C18.0501 31.21 18.46 30.94 19.19 31.07C19.89 31.18 20.5 30.91 21.12 30.7C21.6 30.53 21.8401 29.88 21.6301 29.4C21.4901 29.08 21.6 28.99 21.89 28.95C22.52 28.84 22.93 28.47 23.11 27.85C23.35 27 22.84 26.28 21.93 26.19C21.92 26.21 21.89 26.25 21.89 26.29C22.03 27.08 21.6801 27.63 21.0201 27.99C20.3101 28.38 19.6001 28.43 18.9101 27.91C18.5201 27.62 18.09 27.52 17.61 27.57C17.47 27.6 17.32 27.61 17.17 27.6C16.35 27.51 16.0701 27.01 16.4101 26.26C16.8001 25.39 16.57 24.99 15.61 24.86C14.87 24.77 14.25 25.05 13.68 25.47C12.97 26 12.28 26.59 11.54 27.08C11.12 27.35 10.62 27.56 10.14 27.64C9.45005 27.75 8.77004 27.31 8.54004 26.75C8.32004 26.23 8.53004 25.5 9.04004 25.03C9.55004 24.56 10.2 24.47 10.84 24.37C11.53 24.26 12.25 24.19 12.92 23.98C14.38 23.51 14.94 22.41 14.54 20.93C14.18 19.67 14.35 18.55 15.39 17.65C15.82 17.3 16.31 17.07 16.87 17.03C17.53 16.98 18.1901 16.92 18.8501 16.9C19.6001 16.88 20.27 16.69 20.81 16.15C20.87 16.09 20.96 16.07 21.04 16.03C21.06 16.05 21.1001 16.08 21.1301 16.11C21.0101 16.28 20.92 16.52 20.76 16.61C20.29 16.84 19.81 17.06 19.3 17.21C18.97 17.3 18.87 17.42 18.86 17.78C18.85 18.13 18.66 18.45 18.56 18.8C18.35 18.64 18.1201 18.48 17.8801 18.3C17.7501 19.16 17.68 20.08 16.96 20.76C16.84 20.34 16.7401 19.95 16.6301 19.57C16.5901 19.6 16.55 19.62 16.51 19.64C16.62 20.15 16.67 20.64 16.29 21.11C16.19 20.96 16.11 20.82 16.01 20.7C15.81 20.44 15.59 20.2 15.2 20.28C15.14 20.28 14.98 20.15 14.96 20.06C14.89 19.67 15.0701 19.36 15.3501 19.1C15.5901 18.86 15.77 18.58 16 18.35C16.23 18.12 16.49 17.94 16.75 17.76C16.92 17.64 17.11 17.56 17.28 17.47C17.28 17.42 17.27 17.39 17.26 17.35C17.14 17.33 17.01 17.28 16.9 17.31C15.01 17.75 14.29 19.33 14.75 20.73C15.25 22.27 14.76 23.41 13.33 24.22C13.16 24.31 12.98 24.44 12.87 24.59C12.79 24.7 12.74 24.94 12.81 25.02C12.89 25.12 13.12 25.18 13.25 25.15C13.82 25 14.36 24.73 14.92 24.64C15.39 24.58 15.9001 24.62 16.3501 24.75C16.6401 24.82 16.87 25.14 17.15 25.36C17.6 25.05 17.77 24.55 17.59 23.93C17.56 23.79 17.56 23.63 17.55 23.48C17.74 23.48 17.97 23.42 18.09 23.51C18.32 23.66 18.5601 23.88 18.6301 24.12C18.7901 24.68 18.86 25.26 18.96 25.85C19.42 25.49 19.38 25 19.18 24.43C19.86 24.71 19.9 25.32 20.17 25.84C20.19 25.51 20.21 25.19 20.22 24.84C20.97 24.9 21.01 25.5 21.21 25.99C21.42 25.91 21.61 25.82 21.81 25.74C22.25 25.58 22.62 25.67 22.94 26.02C23.87 27.05 23.71 28.47 22.56 29.21C22.07 29.53 21.9901 30.05 21.7701 30.51C21.7401 30.55 21.91 30.78 22.01 30.79C22.57 30.87 23.07 31.01 23.33 31.59C23.36 31.66 23.53 31.68 23.65 31.68C24.65 31.71 25.23 32.14 25.62 33.08C25.68 33.22 25.87 33.37 26.01 33.39C27.18 33.52 28.26 34.25 28.8 35.3Z" fill="#2E2E2E"/>
<path d="M88.07 76.5001H87.13V69.3101H84.61V68.4901H90.58V69.3101H88.07V76.5001Z" fill="black"/>
<path d="M98.73 72.49C98.73 73.11 98.65 73.67 98.49 74.17C98.33 74.67 98.1 75.11 97.79 75.47C97.48 75.83 97.1 76.11 96.64 76.31C96.18 76.51 95.65 76.61 95.05 76.61C94.45 76.61 93.89 76.51 93.43 76.31C92.97 76.11 92.59 75.83 92.28 75.47C91.98 75.1 91.75 74.67 91.6 74.16C91.45 73.65 91.37 73.09 91.37 72.47C91.37 71.65 91.51 70.93 91.78 70.32C92.05 69.7 92.46 69.22 93.01 68.88C93.56 68.54 94.25 68.36 95.08 68.36C95.91 68.36 96.54 68.53 97.08 68.87C97.62 69.21 98.03 69.69 98.31 70.3C98.59 70.91 98.73 71.64 98.73 72.48V72.49ZM92.36 72.49C92.36 73.17 92.46 73.76 92.65 74.25C92.84 74.75 93.14 75.13 93.54 75.4C93.94 75.67 94.45 75.81 95.07 75.81C95.69 75.81 96.2 75.67 96.6 75.4C97 75.13 97.29 74.75 97.48 74.25C97.67 73.75 97.76 73.17 97.76 72.49C97.76 71.46 97.54 70.65 97.11 70.07C96.68 69.49 96 69.2 95.09 69.2C94.47 69.2 93.96 69.33 93.56 69.6C93.16 69.87 92.86 70.25 92.66 70.74C92.46 71.23 92.37 71.82 92.37 72.5L92.36 72.49Z" fill="black"/>
<path d="M109.5 76.5001H108.57V72.7301H104.36V76.5001H103.43V68.4901H104.36V71.9001H108.57V68.4901H109.5V76.5001Z" fill="black"/>
<path d="M116.72 76.5L115.73 73.96H112.52L111.54 76.5H110.6L113.73 68.46H114.57L117.68 76.5H116.72ZM115.46 73.13L114.52 70.6C114.5 70.53 114.46 70.43 114.41 70.28C114.36 70.13 114.31 69.97 114.26 69.81C114.21 69.65 114.17 69.52 114.13 69.42C114.09 69.57 114.05 69.72 114.01 69.87C113.97 70.02 113.93 70.15 113.89 70.28C113.85 70.41 113.81 70.51 113.79 70.6L112.84 73.13H115.46Z" fill="black"/>
<path d="M120.89 68.4901C121.92 68.4901 122.68 68.6901 123.16 69.1001C123.64 69.5101 123.87 70.0801 123.87 70.8301C123.87 71.1701 123.81 71.4901 123.7 71.8001C123.59 72.1101 123.41 72.3701 123.16 72.6101C122.91 72.8401 122.59 73.02 122.18 73.16C121.78 73.29 121.28 73.3601 120.7 73.3601H119.73V76.5101H118.8V68.5001H120.89V68.4901ZM120.8 69.2901H119.73V72.5501H120.6C121.11 72.5501 121.54 72.5001 121.88 72.3901C122.22 72.2801 122.48 72.1001 122.65 71.8601C122.82 71.6201 122.91 71.2901 122.91 70.8801C122.91 70.3501 122.74 69.9501 122.4 69.6901C122.06 69.4301 121.53 69.3001 120.81 69.3001L120.8 69.2901Z" fill="black"/>
<path d="M127.64 68.4901C128.67 68.4901 129.43 68.6901 129.91 69.1001C130.39 69.5101 130.62 70.0801 130.62 70.8301C130.62 71.1701 130.56 71.4901 130.45 71.8001C130.34 72.1101 130.16 72.3701 129.91 72.6101C129.66 72.8401 129.34 73.02 128.93 73.16C128.53 73.29 128.03 73.3601 127.45 73.3601H126.48V76.5101H125.55V68.5001H127.64V68.4901ZM127.55 69.2901H126.48V72.5501H127.35C127.86 72.5501 128.29 72.5001 128.63 72.3901C128.97 72.2801 129.23 72.1001 129.4 71.8601C129.57 71.6201 129.66 71.2901 129.66 70.8801C129.66 70.3501 129.49 69.9501 129.15 69.6901C128.81 69.4301 128.28 69.3001 127.56 69.3001L127.55 69.2901Z" fill="black"/>
<path d="M132.29 76.5001V68.4901H133.22V76.5001H132.29Z" fill="black"/>
<path d="M141.69 76.5001H140.62L136.25 69.7701H136.21C136.22 69.9501 136.23 70.1501 136.25 70.3801C136.26 70.6101 136.28 70.8501 136.29 71.1101C136.29 71.3701 136.3 71.6301 136.3 71.9001V76.5001H135.43V68.4901H136.5L140.85 75.2001H140.89C140.89 75.0701 140.87 74.89 140.86 74.66C140.85 74.42 140.84 74.1701 140.83 73.9001C140.83 73.6301 140.82 73.3701 140.82 73.1401V68.5001H141.7V76.5101L141.69 76.5001Z" fill="black"/>
<path d="M148.33 76.5001H143.87V68.4901H148.33V69.3101H144.8V71.9001H148.13V72.7101H144.8V75.6701H148.33V76.4901V76.5001Z" fill="black"/>
<path d="M154.63 74.3701C154.63 74.8401 154.51 75.2501 154.28 75.5801C154.04 75.9101 153.72 76.1701 153.29 76.3401C152.87 76.5101 152.37 76.6001 151.79 76.6001C151.49 76.6001 151.2 76.5901 150.93 76.5601C150.66 76.5301 150.41 76.4901 150.19 76.4301C149.96 76.3801 149.76 76.3101 149.59 76.2301V75.3401C149.86 75.4501 150.2 75.5601 150.59 75.6601C150.98 75.7601 151.4 75.8101 151.83 75.8101C152.23 75.8101 152.57 75.7601 152.85 75.6501C153.13 75.5401 153.34 75.3901 153.48 75.1801C153.62 74.9801 153.7 74.7301 153.7 74.4501C153.7 74.1701 153.64 73.9501 153.52 73.7601C153.4 73.5801 153.2 73.4101 152.92 73.2601C152.64 73.1101 152.26 72.9501 151.78 72.7801C151.44 72.6601 151.14 72.5301 150.88 72.3801C150.62 72.2401 150.4 72.0701 150.23 71.8901C150.05 71.7101 149.92 71.5001 149.83 71.2501C149.74 71.0001 149.7 70.7301 149.7 70.4201C149.7 69.9901 149.81 69.6301 150.03 69.3201C150.25 69.0201 150.55 68.7801 150.93 68.6201C151.32 68.4601 151.76 68.3801 152.26 68.3801C152.69 68.3801 153.08 68.4201 153.45 68.5001C153.82 68.5801 154.15 68.6901 154.45 68.8201L154.16 69.6201C153.87 69.5001 153.57 69.4001 153.24 69.3201C152.92 69.2401 152.58 69.2001 152.24 69.2001C151.9 69.2001 151.61 69.2501 151.37 69.3501C151.13 69.4501 150.95 69.5901 150.83 69.7701C150.71 69.9501 150.64 70.1701 150.64 70.4201C150.64 70.7001 150.7 70.9301 150.82 71.1201C150.94 71.3101 151.13 71.4701 151.39 71.6201C151.65 71.7601 152 71.9101 152.43 72.0701C152.9 72.2401 153.3 72.4201 153.63 72.6101C153.96 72.8001 154.21 73.0401 154.38 73.3101C154.55 73.5901 154.64 73.9401 154.64 74.3601L154.63 74.3701Z" fill="black"/>
<path d="M160.78 74.3701C160.78 74.8401 160.66 75.2501 160.43 75.5801C160.19 75.9101 159.87 76.1701 159.44 76.3401C159.02 76.5101 158.52 76.6001 157.94 76.6001C157.64 76.6001 157.35 76.5901 157.08 76.5601C156.81 76.5301 156.56 76.4901 156.34 76.4301C156.11 76.3801 155.91 76.3101 155.74 76.2301V75.3401C156.01 75.4501 156.35 75.5601 156.74 75.6601C157.13 75.7601 157.55 75.8101 157.98 75.8101C158.38 75.8101 158.72 75.7601 159 75.6501C159.28 75.5401 159.49 75.3901 159.63 75.1801C159.77 74.9801 159.85 74.7301 159.85 74.4501C159.85 74.1701 159.79 73.9501 159.67 73.7601C159.55 73.5801 159.35 73.4101 159.07 73.2601C158.79 73.1101 158.41 72.9501 157.93 72.7801C157.59 72.6601 157.29 72.5301 157.03 72.3801C156.77 72.2401 156.55 72.0701 156.38 71.8901C156.2 71.7101 156.07 71.5001 155.98 71.2501C155.89 71.0001 155.85 70.7301 155.85 70.4201C155.85 69.9901 155.96 69.6301 156.18 69.3201C156.4 69.0201 156.7 68.7801 157.08 68.6201C157.47 68.4601 157.91 68.3801 158.41 68.3801C158.84 68.3801 159.23 68.4201 159.6 68.5001C159.97 68.5801 160.3 68.6901 160.6 68.8201L160.31 69.6201C160.02 69.5001 159.72 69.4001 159.39 69.3201C159.07 69.2401 158.73 69.2001 158.39 69.2001C158.05 69.2001 157.76 69.2501 157.52 69.3501C157.28 69.4501 157.1 69.5901 156.98 69.7701C156.86 69.9501 156.79 70.1701 156.79 70.4201C156.79 70.7001 156.85 70.9301 156.97 71.1201C157.09 71.3101 157.28 71.4701 157.54 71.6201C157.8 71.7601 158.15 71.9101 158.58 72.0701C159.05 72.2401 159.45 72.4201 159.78 72.6101C160.11 72.8001 160.36 73.0401 160.53 73.3101C160.7 73.5901 160.79 73.9401 160.79 74.3601L160.78 74.3701Z" fill="black"/>
<path d="M171.4 76.5001H170.47V72.7301H166.26V76.5001H165.33V68.4901H166.26V71.9001H170.47V68.4901H171.4V76.5001Z" fill="black"/>
<path d="M180.55 72.49C180.55 73.11 180.47 73.67 180.31 74.17C180.15 74.67 179.92 75.11 179.61 75.47C179.3 75.83 178.92 76.11 178.46 76.31C178 76.51 177.47 76.61 176.87 76.61C176.27 76.61 175.71 76.51 175.25 76.31C174.79 76.11 174.41 75.83 174.1 75.47C173.8 75.1 173.57 74.67 173.42 74.16C173.27 73.65 173.19 73.09 173.19 72.47C173.19 71.65 173.33 70.93 173.6 70.32C173.87 69.7 174.28 69.22 174.83 68.88C175.38 68.54 176.07 68.36 176.9 68.36C177.73 68.36 178.36 68.53 178.9 68.87C179.44 69.21 179.85 69.69 180.13 70.3C180.41 70.91 180.55 71.64 180.55 72.48V72.49ZM174.17 72.49C174.17 73.17 174.27 73.76 174.46 74.25C174.65 74.75 174.95 75.13 175.35 75.4C175.75 75.67 176.26 75.81 176.88 75.81C177.5 75.81 178.01 75.67 178.41 75.4C178.81 75.13 179.1 74.75 179.29 74.25C179.48 73.75 179.57 73.17 179.57 72.49C179.57 71.46 179.35 70.65 178.92 70.07C178.49 69.49 177.81 69.2 176.9 69.2C176.28 69.2 175.77 69.33 175.37 69.6C174.97 69.87 174.67 70.25 174.47 70.74C174.27 71.23 174.18 71.82 174.18 72.5L174.17 72.49Z" fill="black"/>
<path d="M182.33 76.5001V68.4901H183.26V75.6701H186.82V76.5001H182.33Z" fill="black"/>
<path d="M188.19 76.5001V68.4901H189.12V76.5001H188.19Z" fill="black"/>
<path d="M197.68 72.4201C197.68 73.3201 197.52 74.0801 197.19 74.6801C196.86 75.2801 196.39 75.7401 195.76 76.0401C195.14 76.3401 194.38 76.5001 193.49 76.5001H191.32V68.4901H193.74C194.55 68.4901 195.26 68.6401 195.84 68.9401C196.43 69.2401 196.88 69.6801 197.2 70.2601C197.52 70.8401 197.68 71.5601 197.68 72.4201ZM196.7 72.4601C196.7 71.7401 196.58 71.1501 196.34 70.6801C196.1 70.2101 195.75 69.8601 195.29 69.6401C194.83 69.4101 194.26 69.3001 193.59 69.3001H192.25V75.7201H193.38C194.48 75.7201 195.31 75.4501 195.86 74.9001C196.41 74.3501 196.69 73.5501 196.69 72.4701L196.7 72.4601Z" fill="black"/>
<path d="M204.48 76.5L203.49 73.96H200.28L199.3 76.5H198.36L201.49 68.46H202.33L205.44 76.5H204.48ZM203.22 73.13L202.28 70.6C202.26 70.53 202.22 70.43 202.17 70.28C202.12 70.13 202.07 69.97 202.02 69.81C201.97 69.65 201.93 69.52 201.89 69.42C201.85 69.57 201.81 69.72 201.77 69.87C201.73 70.02 201.69 70.15 201.65 70.28C201.61 70.41 201.57 70.51 201.55 70.6L200.6 73.13H203.22Z" fill="black"/>
<path d="M208.6 72.5101L210.73 68.4901H211.73L209.06 73.3901V76.5001H208.13V73.4401L205.46 68.4901H206.48L208.6 72.5101Z" fill="black"/>
<path d="M14.0601 0.420013C13.9301 0.400013 13.8101 0.260013 13.6901 0.170013C13.7001 0.170013 13.7001 0.150015 13.7101 0.140015H14.7501C14.5801 0.380015 14.3401 0.480013 14.0601 0.420013Z" fill="white"/>
<path d="M18.48 0.140015C18.35 0.340015 18.17 0.510017 17.94 0.650017C17.28 1.05002 16.8701 1.14002 16.1001 1.04002C16.0001 1.82002 15.38 1.97001 14.76 2.07001C13.77 2.23001 12.88 1.95001 12.11 1.32001C11.71 0.990015 11.59 0.600015 11.73 0.140015H12.1601C12.0501 0.600015 12.26 1.10002 12.75 1.36002C13.53 1.78002 14.37 1.87002 15.23 1.61002C15.68 1.48002 15.8 1.28001 15.89 0.670013C17 0.770013 17.7 0.610015 18.05 0.140015H18.48Z" fill="white"/>
<path d="M28.8 35.3C28.26 34.25 27.18 33.52 26.01 33.39C25.87 33.37 25.68 33.22 25.62 33.08C25.23 32.14 24.65 31.71 23.65 31.68C23.53 31.68 23.36 31.66 23.33 31.59C23.07 31.01 22.57 30.87 22.01 30.79C21.91 30.79 21.7401 30.55 21.7701 30.51C21.9901 30.05 22.07 29.53 22.56 29.21C23.71 28.47 23.87 27.05 22.94 26.02C22.62 25.67 22.25 25.58 21.81 25.74C21.61 25.82 21.42 25.91 21.21 25.99C21.01 25.5 20.97 24.9 20.22 24.84C20.21 25.19 20.19 25.51 20.17 25.84C19.9 25.32 19.86 24.71 19.18 24.43C19.38 25 19.42 25.49 18.96 25.85C18.86 25.26 18.7901 24.68 18.6301 24.12C18.5601 23.88 18.32 23.66 18.09 23.51C17.97 23.42 17.74 23.48 17.55 23.48C17.56 23.63 17.56 23.79 17.59 23.93C17.77 24.55 17.6 25.05 17.15 25.36C16.87 25.14 16.6401 24.82 16.3501 24.75C15.9001 24.62 15.39 24.58 14.92 24.64C14.36 24.73 13.82 25 13.25 25.15C13.12 25.18 12.89 25.12 12.81 25.02C12.74 24.94 12.79 24.7 12.87 24.59C12.98 24.44 13.16 24.31 13.33 24.22C14.76 23.41 15.25 22.27 14.75 20.73C14.29 19.33 15.01 17.75 16.9 17.31C17.01 17.28 17.14 17.33 17.26 17.35C17.27 17.39 17.28 17.42 17.28 17.47C17.11 17.56 16.92 17.64 16.75 17.76C16.49 17.94 16.22 18.13 16 18.35C15.78 18.57 15.5901 18.86 15.3501 19.1C15.0701 19.36 14.89 19.67 14.96 20.06C14.98 20.15 15.14 20.29 15.2 20.28C15.59 20.2 15.81 20.44 16.01 20.7C16.11 20.82 16.19 20.96 16.29 21.11C16.67 20.64 16.62 20.15 16.51 19.64C16.55 19.62 16.5901 19.6 16.6301 19.57C16.7401 19.95 16.84 20.34 16.96 20.76C17.68 20.08 17.7501 19.16 17.8801 18.3C18.1201 18.48 18.35 18.64 18.56 18.8C18.66 18.45 18.85 18.13 18.86 17.78C18.87 17.42 18.97 17.3 19.3 17.21C19.81 17.06 20.29 16.84 20.76 16.61C20.92 16.52 21.0101 16.28 21.1301 16.11C21.1001 16.08 21.06 16.05 21.04 16.03C20.96 16.07 20.87 16.09 20.81 16.15C20.27 16.69 19.6001 16.88 18.8501 16.9C18.1901 16.92 17.53 16.98 16.87 17.03C16.31 17.07 15.82 17.3 15.39 17.65C14.35 18.55 14.18 19.67 14.54 20.93C14.94 22.41 14.38 23.51 12.92 23.98C12.25 24.19 11.53 24.26 10.84 24.37C10.2 24.47 9.55004 24.56 9.04004 25.03C8.53004 25.5 8.32004 26.23 8.54004 26.75C8.77004 27.31 9.45005 27.75 10.14 27.64C10.62 27.56 11.12 27.35 11.54 27.08C12.28 26.59 12.97 26 13.68 25.47C14.25 25.05 14.87 24.77 15.61 24.86C16.57 24.99 16.8001 25.39 16.4101 26.26C16.0701 27.01 16.35 27.51 17.17 27.6C17.32 27.6 17.47 27.6 17.61 27.57C18.09 27.52 18.5201 27.62 18.9101 27.91C19.6001 28.43 20.3101 28.38 21.0201 27.99C21.6801 27.63 22.03 27.08 21.89 26.29C21.89 26.25 21.92 26.21 21.93 26.19C22.84 26.28 23.35 27 23.11 27.85C22.93 28.47 22.52 28.84 21.89 28.95C21.6 28.99 21.4901 29.08 21.6301 29.4C21.8401 29.88 21.6 30.53 21.12 30.7C20.5 30.91 19.89 31.18 19.19 31.07C18.46 30.94 18.0501 31.21 17.7401 31.87C17.6601 32.04 17.5301 32.22 17.3801 32.29C16.6501 32.6 15.81 32.25 15.47 31.53C15.42 31.42 15.3501 31.31 15.2401 31.14C15.1701 32.12 15.56 32.6 16.39 32.75C16.61 32.78 16.92 32.74 16.92 33.06C16.93 33.79 17.29 34.35 17.61 34.95C17.87 35.42 18.14 35.89 18.31 36.4C18.4 36.64 18.25 36.95 18.2 37.21C18 37.18 17.7901 37.15 17.6001 37.1C17.4201 37.06 17.24 36.97 17.06 36.93C15.73 36.63 14.6401 37.05 13.7701 38.04C12.9501 38.99 13.19 40.36 14.23 41.01C14.73 41.32 15.32 41.25 15.62 40.83C15.75 40.62 15.8101 40.41 15.6001 40.18C15.5601 40.22 15.51 40.25 15.5 40.28C15.34 40.91 14.9401 41.06 14.3801 40.7C13.5401 40.16 13.4 39.08 14.06 38.25C15.31 36.68 17.86 36.91 18.78 38.69C19.35 39.77 19.17 40.85 18.61 41.88C17.54 43.79 15.92 44.45 13.82 43.83C13.74 43.81 13.66 43.81 13.5 43.8C13.81 44.24 14.2 44.4 14.62 44.48C15.9 44.73 16.9301 44.24 17.8501 43.42C18.5301 42.82 18.95 42.06 19.3 41.23C19.35 41.09 19.53 40.92 19.67 40.91C19.93 40.89 20.13 41.07 20.15 41.35C20.16 41.53 20.13 41.71 20.11 41.88C20.06 42.32 19.95 42.76 19.94 43.2C19.94 43.74 20.27 44.06 20.8 44.1C21.08 44.12 21.37 44.07 21.65 44.05C21.8 44.04 21.98 43.99 22.12 44.02C22.85 44.2 23.37 43.87 23.78 43.33C24.01 43.03 24.18 42.66 24.31 42.29C24.46 41.86 24.71 41.74 25.14 41.81C26.21 41.97 27.13 41.69 27.79 40.79C28 40.49 28.2 40.18 28.4 39.87C28.63 39.52 28.72 39.13 28.8 38.74C28.86 38.48 28.9101 38.21 28.9901 37.96C29.3101 36.98 29.2 36.06 28.8 35.3ZM16.25 20.27C15.99 20.17 15.7301 20.08 15.4901 19.95C15.4001 19.91 15.28 19.78 15.28 19.75C15.39 19.59 15.52 19.43 15.67 19.31C15.7 19.27 15.89 19.33 15.93 19.4C16.08 19.65 16.2 19.93 16.33 20.2C16.31 20.23 16.27 20.25 16.25 20.27ZM18.3 17.32C18.7 17.48 18.6 17.84 18.57 18.28C18.21 18.03 17.93 17.82 17.65 17.62C17.8 17.32 18.04 17.22 18.3 17.32ZM17.44 18.38C17.6 18.76 17.48 19.51 17.26 19.83C16.95 19.52 16.64 19.21 16.33 18.89C16.29 18.85 16.25 18.77 16.26 18.75C16.46 18.52 16.65 18.26 16.9 18.1C17.13 17.96 17.34 18.15 17.44 18.38ZM9.35005 27.17C8.63005 26.91 8.51004 25.77 9.18004 25.28C9.56004 25.01 10.04 24.87 10.47 24.66C10.48 24.7 10.5001 24.73 10.5201 24.77C9.72005 25.85 9.94004 26.3 11.15 26.99C10.56 27.29 9.96005 27.38 9.35005 27.17ZM12.81 25.84C12.38 26.1 11.9601 26.4 11.4901 26.56C10.9901 26.74 10.52 26.42 10.43 25.96C10.32 25.4 10.54 25.11 11.14 24.95C11.56 24.84 11.98 24.7 12.33 24.6C12.52 24.92 12.71 25.22 12.87 25.54C12.91 25.62 12.87 25.8 12.81 25.84ZM20.6001 25.61C20.8201 26.58 20.8 26.63 20.09 26.67C20.26 26.3 20.4401 25.96 20.6001 25.61ZM19 26.24C19.14 26.02 19.3301 25.82 19.4901 25.62C19.5401 25.63 19.5901 25.65 19.6301 25.67C19.6001 25.95 19.6 26.24 19.51 26.5C19.43 26.74 19.19 26.8 18.98 26.67C18.92 26.62 18.94 26.35 19 26.24ZM17.1301 25.87C17.6401 25.35 18.03 24.78 18.05 23.98C18.84 24.62 18.58 25.92 18.18 26.41C18.08 26.55 17.7801 26.62 17.6001 26.58C17.4001 26.52 17.2 26.34 17.04 26.17C17 26.14 17.0601 25.94 17.1301 25.87ZM21.34 27.19C20.8 27.91 19.73 28.09 18.98 27.56C18.56 27.27 18.15 27.16 17.65 27.27C17.45 27.32 17.22 27.27 17.01 27.22C16.49 27.07 16.4301 26.86 16.7701 26.36C17.2001 26.93 17.8 26.96 18.45 26.91C18.77 26.88 19.1 26.93 19.42 26.97C20.14 27.05 20.82 27.02 21.45 26.57C21.48 26.6 21.52 26.64 21.56 26.67C21.49 26.84 21.46 27.05 21.34 27.19ZM18.5201 37.32C18.7801 36.85 18.71 36.41 18.46 35.97C18.13 35.37 17.8001 34.76 17.4901 34.15C17.0501 33.3 17.12 33 17.81 32.37C17.92 32.29 17.9701 32.15 18.0201 32.03C18.2801 31.51 18.75 31.33 19.37 31.6C18.55 32.62 18.73 33.72 18.97 34.84C19.19 35.85 19.21 36.85 18.55 37.88C18.53 37.62 18.4601 37.43 18.5201 37.32ZM22.68 43.73C22.57 43.77 22.38 43.69 22.25 43.62C22.13 43.54 22.03 43.39 21.9 43.26C21.8 43.35 21.72 43.4 21.68 43.48C21.46 43.87 21.1301 43.87 20.7701 43.73C20.4101 43.59 20.25 43.33 20.31 42.93C20.37 42.49 20.43 42.05 20.47 41.6C20.5 41.12 20.34 40.64 19.79 40.56C19.52 40.51 19.4901 40.29 19.4901 40.06C19.4701 39.26 19.36 38.51 18.7 37.92C19.63 37.15 19.38 36.15 19.25 35.17C19.17 34.56 19.09 33.94 19.07 33.31C19.03 31.97 20.45 30.8 21.76 31.09C22.19 31.18 22.6901 31.2 22.9901 31.79C22.6001 31.84 22.27 31.92 21.95 31.91C21.31 31.9 21.03 32.15 20.98 32.75C20.96 32.95 20.87 33.18 20.73 33.33C20.63 33.44 20.41 33.45 20.25 33.49C20.23 33.32 20.19 33.15 20.19 32.97C20.19 32.9 20.2601 32.83 20.2401 32.68C20.1101 32.77 19.88 32.87 19.87 32.97C19.85 33.24 19.86 33.58 20.01 33.75C20.37 34.15 20.7 33.68 21.08 33.61C20.32 34.19 20.33 35.03 20.32 35.84C20.32 36.63 20.19 37.35 19.57 37.97C20.04 37.96 20.26 37.72 20.34 37.38C20.45 36.82 20.5401 36.26 20.6001 35.69C20.6801 35.05 20.7901 34.45 21.2701 33.95C21.4001 33.82 21.4401 33.59 21.4901 33.4C21.8101 32.2 23.47 31.64 24.5 32.4C24.12 32.63 24.0301 32.96 24.0201 33.39C24.0101 34.01 23.26 34.55 22.7 34.39C22.36 34.28 22.3301 34.15 22.5201 33.85C22.5801 33.75 22.5901 33.61 22.6301 33.48C22.4701 33.49 22.28 33.44 22.15 33.5C21.88 33.65 21.8201 34.02 21.9901 34.34C22.2234 34.8 22.0867 35.12 21.58 35.3C21.58 35.3 21.54 35.34 21.4 35.47C21.52 35.51 21.64 35.53 21.72 35.59C22.62 36.24 22.87 37.54 22.31 38.5C21.95 39.1 21.68 39.22 20.96 39.11C20.85 39.43 21.06 39.53 21.3 39.61C21.69 39.74 21.94 39.97 22 40.42C22.05 40.86 21.95 41.17 21.51 41.36C21.19 41.5 20.93 41.73 20.86 42.16C21.02 42.08 21.18 42 21.33 41.91C21.58 41.78 21.82 41.61 22.08 41.52C22.52 41.37 22.91 41.56 23.05 41.93C23.2034 42.3166 23.4834 42.4833 23.89 42.43C23.66 43.05 23.24 43.47 22.68 43.73ZM28.8 37.1C28.77 37.67 28.5801 38.23 28.2401 38.62C27.8601 39.09 27.17 39.16 26.67 38.79C26.14 38.39 25.84 37.44 26.05 36.8C26.22 36.25 26.98 36.01 27.41 36.39C27.52 36.49 27.61 36.73 27.57 36.84C27.52 36.98 27.32 37.08 27.16 37.16C27.1 37.19 26.99 37.15 26.87 37.13C26.9 37.45 27.06 37.54 27.32 37.46C27.61 37.38 27.8 37.18 27.81 36.84C27.83 36.39 27.55 35.97 27.12 35.8C26.72 35.65 26.36 35.76 26.04 36.12C25.17 37.07 25.8001 38.82 26.6301 39.26C27.2201 39.57 27.78 39.44 28.37 38.99C28.13 39.9 27.6701 40.52 26.9901 40.99C26.5101 41.31 25.98 41.43 25.41 41.44C24.79 41.44 24.64 41.33 24.47 40.72C24.44 40.59 24.4 40.46 24.26 40.32C24.22 40.5 24.18 40.68 24.14 40.85C24.09 41.13 23.92 41.21 23.71 41.03C23.37 40.75 23.04 40.45 22.72 40.13C22.5 39.93 22.19 39.72 22.15 39.48C22.12 39.28 22.44 39.03 22.58 38.79C23.04 38.04 23.08 37.24 22.81 36.41C22.73 36.14 22.62 35.87 22.53 35.6C22.42 35.22 22.54 34.93 22.92 34.84C23.51 34.7 23.9801 34.41 24.3801 33.94C24.5201 33.79 24.8 33.67 25.03 33.66C26.37 33.63 27.48 34.12 28.32 35.21C28.6 35.58 28.76 36.05 28.8 36.55C28.82 36.73 28.83 36.92 28.8 37.1Z" fill="white"/>
<path d="M3.85001 12.06C3.53001 12.06 3.21 12.14 2.89 12.19C2.41 12.28 1.93 12.4 1.45 12.45C1.3 12.47 1.07 12.34 1 12.21C0.93 12.08 1.01 11.86 1.02 11.64C1.62 11.98 1.93 11.97 2.12 11.67C2.34 11.28 2.14 10.8 1.67 10.56C1.14 10.3 0.51 10.33 0 10.6V10.95C0.12 10.88 0.249999 10.82 0.389999 10.79C0.859999 10.68 1.37 10.61 1.73 11.06C1.81 11.14 1.76 11.32 1.77 11.45C1.64 11.45 1.47999 11.51 1.39999 11.45C1.16999 11.28 0.980002 11.34 0.830002 11.52C0.600002 11.77 0.509994 12.07 0.649994 12.39C0.769994 12.69 1.03001 12.8 1.35001 12.75C2.32001 12.6 3.28001 12.45 4.35001 12.28C4.16001 12.19 4.00001 12.06 3.85001 12.06ZM25.76 0.140015C25.66 0.270015 25.57 0.410017 25.49 0.560017C24.89 1.63002 24.25 2.65002 23.43 3.56002C23.05 3.98002 22.63 4.37002 22.08 4.47002C21.27 4.62002 20.47 4.74002 19.66 4.75002C17.47 4.78002 15.75 6.36001 15.7 8.46001C14.57 8.40001 14.05 9.13001 13.68 10.1C13.15 9.96001 12.62 9.82002 12.09 9.68002C12.11 9.58002 12.12 9.55001 12.13 9.51001C12.4 8.83001 12.21 7.98002 11.69 7.59002C11.09 7.15002 10.21 7.13001 9.61 7.58001C9.31 7.81001 9.09 8.11001 9.17 8.51001C9.21 8.71001 9.27001 8.95001 9.60001 8.82001C10.01 8.66001 10.14 8.78002 10.11 9.22002C10.1 9.38002 10.05 9.54002 9.99001 9.68002C9.75001 10.23 9.51 10.76 9.25 11.34H9.22C9.22 11.34 9.14001 11.33 9.10001 11.33C7.82001 10.89 6.83 11.28 6.03 12.33C5.92 12.47 5.63999 12.54 5.42999 12.56C4.96999 12.6 4.49 12.53 4.03 12.61C3.29 12.76 2.68 13.18 2.2 13.75C2.02 13.98 1.88001 14.02 1.60001 13.82C1.28001 13.58 0.879996 13.41 0.479996 13.3C0.299996 13.25 0.14 13.18 0 13.09V13.76C0.75 13.51 1.47 13.91 1.7 14.76C1.73 14.89 1.78 15.02 1.81 15.15C1.99 14.81 2.01 14.43 2.2 14.16C2.86 13.23 3.77 12.71 4.94 12.76C5.59 12.79 6.02 13.12 6.23 13.74C6.27 13.84 6.31999 13.94 6.39999 14.11C6.60999 13.66 6.54 13.32 6.27 13.03C6.04 12.78 6.08 12.56 6.33 12.4C6.75 12.1 7.16 11.77 7.64 11.6C8.83 11.16 9.80001 12.01 9.60001 13.28C9.57001 13.52 9.55 13.77 9.52 14.01C9.56 14.03 9.59 14.05 9.62 14.06C9.71 13.96 9.85 13.87 9.87 13.76C9.96 13.41 10.01 13.04 10.04 12.69C10.08 12.24 10.24 12.11 10.67 12.18C11.09 12.25 11.36 12.48 11.5 12.88C11.68 13.39 11.53 13.83 11.2 14.23C11.1 14.36 11.02 14.5 10.93 14.64C10.95 14.66 10.98 14.69 11.01 14.71C11.27 14.53 11.51 14.33 11.79 14.18C12.16 13.97 12.47 14.14 12.49 14.57C12.49 14.77 12.44 14.97 12.38 15.16C12.32 15.37 12.22 15.57 12.13 15.8C12.77 15.65 13.04 15.17 12.89 14.56C12.82 14.3 12.73 14 12.82 13.76C13.19 12.59 14.11 11.44 15.67 12.07C15.94 12.18 16.09 12.09 16.22 11.84C16.36 11.59 16.55 11.34 16.77 11.15C17.09 10.86 17.49 10.95 17.66 11.35C17.76 11.57 17.79 11.86 17.74 12.09C17.65 12.65 17.29 13.06 16.84 13.39C16.68 13.5 16.49 13.59 16.4 13.74C16.32 13.89 16.28 14.12 16.34 14.27C16.38 14.36 16.63 14.38 16.78 14.42C16.93 14.47 17.21 14.47 17.22 14.55C17.27 14.69 17.23 14.92 17.13 15.05C16.85 15.43 16.44 15.59 15.99 15.53C15.55 15.47 15.38 15.11 15.27 14.73C15.09 14.16 15.27 13.67 15.61 13.21C15.66 13.16 15.65 13.05 15.67 12.97C15.57 12.97 15.44 12.94 15.39 12.99C15.27 13.09 15.16 13.23 15.11 13.38C14.92 13.88 14.76 14.4 14.58 14.92C14.5 15.16 14.34 15.31 14.07 15.25C13.79 15.19 13.67 14.99 13.7 14.71C13.7 14.61 13.71 14.51 13.72 14.38C13.4 14.6 13.3 14.81 13.35 15.06C13.5 15.71 14.03 15.58 14.53 15.58C14.38 15.76 14.27 15.88 14.13 16.06C14.74 16.23 14.75 15.65 15.04 15.47C15.83 16.15 16.63 16.19 17.3 15.56C17.9 15.02 17.88 14.49 17.22 13.59C17.98 13.11 18.2 12.35 18.23 11.5C18.26 10.83 17.85 10.39 17.17 10.52C16.85 10.58 16.52 10.77 16.27 10.99C15.88 11.34 15.45 11.55 14.92 11.58C14.51 11.61 14.28 11.39 14.12 11.03C13.73 10.12 14.78 8.64002 15.76 8.88002C15.89 8.92002 16.03 8.91001 16.24 8.92001C15.76 8.01001 16.01 7.26002 16.56 6.59002C17.3 5.68002 18.24 5.11002 19.44 5.06002C19.9 5.04002 20.36 5.00002 20.82 5.02002C22.11 5.07002 23.14 4.57002 23.89 3.56002C24.56 2.64002 25.13 1.66001 25.76 0.710014C25.89 0.510014 26.03 0.320015 26.18 0.140015H25.76ZM10.08 11.61C10.09 11.73 10.01 11.86 9.95999 11.99C9.92999 11.97 9.88 11.96 9.84 11.94C9.71 11.39 9.58999 10.86 10.01 10.35C10.19 10.12 10.35 9.86001 10.44 9.58001C10.64 9.00001 10.45 8.38001 9.72 8.42001C9.65 8.42001 9.59 8.39001 9.53 8.37001C9.73 7.86001 10.39 7.56002 10.97 7.72002C11.48 7.86002 11.86 8.45001 11.78 9.01001C11.71 9.57001 11.46 10 10.95 10.23C10.36 10.51 10.05 10.95 10.08 11.61ZM13.6 11.95C13.15 12.29 12.86 12.86 12.51 13.33C12.37 13.52 12.21 13.7 12.07 13.9C12.03 13.87 11.99 13.85 11.95 13.83C11.94 13.68 11.92 13.53 11.92 13.38C11.95 12.54 11.66 12.12 10.87 11.87C10.5 11.75 10.43 11.57 10.58 11.23C10.81 10.72 11.17 10.38 11.8 10.27C11.79 10.63 11.69 10.97 12.1 11.09C12.49 11.21 12.79 11.07 13.02 10.76C13.21 10.51 13.39 10.53 13.59 10.73C14.04 11.18 14.15 11.54 13.6 11.95Z" fill="white"/>
<path d="M17.05 28.07C16.34 27.97 15.6 28.05 14.88 28.04C14.64 28.04 14.38 28.06 14.18 27.97C13.53 27.7 12.97 27.78 12.49 28.27C12.06 28.73 11.62 29.19 11.22 29.69C10.61 30.44 9.91 31.05 8.97 31.36C8.55 31.49 8.21 31.39 7.84 31.1C8.04 30.97 8.21 30.87 8.38 30.76C9.28 30.21 9.58 29.05 9.06 28.17C8.49 27.22 7.11 26.8 6.27 27.36C5.99 27.55 5.76 27.91 5.66 28.23C5.49 28.76 5.84 29.22 6.33 29.26C6.77 29.31 7.07 28.99 6.92 28.63C6.88 28.67 6.84 28.69 6.8 28.73C6.65 28.97 6.44999 29.06 6.17999 28.92C5.91999 28.79 5.83 28.56 5.87 28.28C5.92 27.85 6.27999 27.51 6.75999 27.47C7.33999 27.42 7.86 27.61 8.34 27.91C8.87 28.25 9.06 28.75 8.98 29.34C8.88 30.13 8.31 30.58 7.3 30.7C6.57 30.78 5.92 30.59 5.27 30.26C5.37 30.41 5.49 30.56 5.64 30.62C6.34 30.89 7.08999 31.09 7.75999 31.43C8.30999 31.7 8.81 31.71 9.36 31.56C10.28 31.34 10.84 30.65 11.41 29.98C11.83 29.49 12.23 29 12.69 28.56C13.1 28.16 13.56 28.12 13.95 28.38C13.82 28.57 13.67 28.74 13.56 28.94C13.38 29.25 13.17 29.42 12.78 29.37C12.37 29.33 12.12 29.57 12 29.96C11.86 30.42 11.74 30.89 11.56 31.35C11.08 32.64 10.01 33.22 8.66 32.9C8.4 32.83 8.12999 32.66 7.95999 32.46C7.48999 31.9 7.2 31.81 6.52 32.09C6.27 32.19 5.98999 32.31 5.70999 32.33C5.06999 32.38 4.41 32.31 3.78 32.39C2.82 32.5 1.96 31.84 2.36 30.79C2.63 30.1 2.12 29.52 1.37 29.53C1.03 29.53 0.669996 29.63 0.339996 29.73C0.219996 29.76 0.11 29.79 0 29.8V30.29C0.18 30.38 0.329997 30.53 0.449997 30.7C0.959997 31.41 1.37 32.18 1.48 33.06C1.68 34.46 1.45001 35.76 0.350006 36.78C-0.0899939 37.17 -0.100006 37.45 0.399994 37.78C0.629994 37.92 0.929997 37.99 1.2 38.01C1.52 38.02 1.83999 37.94 2.20999 37.89C1.67999 38.77 0.839994 39.14 0.00999451 39.54C0.189995 39.55 0.369995 39.56 0.509995 39.49C1.21999 39.14 1.95 39.17 2.7 39.29C3.15 39.36 3.5 39.55 3.67 39.98C3.85 40.43 3.71 40.83 3.41 41.19C3.27 41.37 3.10999 41.54 3.00999 41.75C2.73999 42.26 2.81 42.78 3.17 43.22C3.51 43.63 3.89 43.95 4.5 43.77C4.66 43.73 4.9 43.88 5.05 44C5.24 44.17 5.36999 44.41 5.56999 44.57C6.04999 44.98 6.80999 45.03 7.31999 44.7C7.75999 44.43 7.95999 43.8 7.75999 43.35C7.53999 42.89 7.26 42.81 6.64 42.99C6.48 43.04 6.3 42.94 6.13 42.91C6.19 42.75 6.21999 42.56 6.31999 42.42C6.38999 42.33 6.53 42.26 6.66 42.23C7.43 42.04 8.18 42.14 8.87 42.51C9.32 42.75 9.68 43.15 9.61 43.71C9.43 45.2 8.02 46.51 6.44 46.22C5.6 46.07 4.82 45.85 4.44 44.97C4.4 44.89 4.16999 44.83 4.06999 44.87C3.31999 45.19 2.38 44.43 2.27 43.56C2.24 43.31 2.26 43.05 2.27 42.8C2.3 41.8 1.69 40.93 0.729996 40.66C0.489996 40.58 0.24 40.55 0 40.69V40.85C0 40.85 0.0299933 40.85 0.0399933 40.85C1.12999 40.89 1.73 41.38 1.92 42.45C1.99 42.88 1.9 43.32 1.98 43.74C2.05 44.13 1.96001 44.36 1.60001 44.51C1.31001 44.64 1.16 44.86 1.27 45.25C1.39 45.09 1.48 44.96 1.59 44.84C1.78 44.61 2.02 44.53 2.31 44.66C2.7 44.84 3.1 45.02 3.48 45.22C3.85 45.43 4.05 45.76 4 46.2C3.96 46.56 3.82 46.86 3.47 47.01C3.15 47.15 2.89 47.02 2.67 46.8C2.43 46.56 2.67999 46.42 2.78999 46.24C2.80999 46.21 2.81 46.15 2.84 46.09C2.48 46 2.33001 46.22 2.24001 46.46C2.15001 46.77 2.28 47.03 2.56 47.18C3.3 47.6 4.22999 47.14 4.31999 46.3C4.34999 46.05 4.29 45.78 4.27 45.53C4.6 45.73 4.91999 45.98 5.25999 46.13C5.58999 46.28 5.72 46.45 5.67 46.81C5.6 47.45 6.14 48.07 6.78 48.04C7.02 48.04 7.28 47.87 7.47 47.71C7.56 47.63 7.51 47.4 7.52 47.23C7.18 47.84 7.06 47.92 6.61 47.71C6.44 47.63 6.26 47.49 6.14 47.34C5.84 46.94 5.96 46.63 6.45 46.56C7.02 46.46 7.59999 46.39 8.17999 46.35C8.33999 46.35 8.53 46.4 8.67 46.49C9.08 46.76 9.33999 47.68 9.17999 48.2C9.01999 48.73 8.58 49.01 7.94 49.06C7.78 49.08 7.63001 49.2 7.49001 49.31C7.23001 49.49 7.02001 49.77 6.74001 49.88C5.43001 50.35 4.49 49.83 4.13 48.49C4.13 48.47 4.13 48.44 4.11 48.42C3.95 47.91 3.66999 47.74 3.14999 47.83C2.31999 47.97 1.76 48.47 1.41 49.21C1.27 49.49 1.26 49.69 1.56 49.88C1.98 50.16 2.03 50.5 1.69 50.88C1.53 51.08 1.3 51.27 1.06 51.35C0.699998 51.47 0.35 51.55 0 51.56V51.78C0.66 51.78 1.31 51.59 1.78 51.24C2.18 50.95 2.3 50.51 2.09 50.06C1.99 49.87 1.81 49.72 1.72 49.53C1.66 49.41 1.61999 49.21 1.67999 49.12C1.97999 48.61 2.39 48.23 2.98 48.08C3.58 47.92 3.86 48.08 3.94 48.7C4.05 49.78 4.69999 50.25 5.64999 50.31C6.47999 50.37 7.28999 50.28 7.81999 49.5C7.89999 49.39 8.07999 49.32 8.20999 49.31C9.04999 49.27 9.75 48.13 9.48 47.33C9.32 46.85 9.03001 46.4 8.74001 45.82C8.77001 45.8 8.93 45.73 9 45.61C9.3 45.11 9.65 44.61 9.83 44.05C10.11 43.15 9.82999 42.62 8.95999 42.22C8.62999 42.06 8.26 41.95 7.89 41.85C7.35 41.7 6.82 41.79 6.33 42.07C5.89 42.31 5.78 42.57 5.92 42.96C6.09 43.37 6.39 43.37 6.77 43.3C6.97 43.26 7.32 43.32 7.37 43.43C7.45 43.63 7.41999 43.94 7.31999 44.14C7.14999 44.48 6.82 44.62 6.42 44.56C5.94 44.49 5.59001 44.22 5.24001 43.9C5.00001 43.69 4.67 43.48 4.37 43.46C3.83 43.44 3.46999 43.25 3.25999 42.76C3.03999 42.27 3.23999 41.92 3.53999 41.54C3.78999 41.24 4.04 40.86 4.09 40.48C4.21 39.7 3.56 39.06 2.73 39.05C2.38 39.04 2.02 39.09 1.67 39.12C1.65 39.09 1.63 39.06 1.61 39.03C3.52 37.27 3.83999 35.14 3.03999 32.79C3.26999 32.79 3.44 32.81 3.62 32.79C3.99 32.76 4.37 32.67 4.75 32.65C6.33 32.59 8.08 34.14 7.11 36.06C6.85 36.55 6.69 37.08 6.52 37.62C6.37 38.05 6.35 38.53 6.64 38.89C7.08 39.43 7.52999 39.97 8.06999 40.39C9.36999 41.38 11.67 41.3 12.95 40.27C13.09 40.16 13.15 39.98 13.27 39.77C12.83 39.8 12.49 39.83 12.15 39.85C11.43 39.86 10.76 39.63 10.17 39.21C10.06 39.13 10.05 38.92 9.99001 38.77C10.12 38.72 10.26 38.64 10.38 38.65C10.84 38.7 11.05 38.56 11.14 38.09C11.26 37.39 10.88 36.59 10.24 36.23C10.07 36.13 9.87 36.08 9.69 35.98C9.6 35.91 9.48 35.75 9.5 35.68C9.72 34.96 9.51 34.31 9.23 33.68C9.08 33.37 9.11001 33.25 9.49001 33.23C10.85 33.15 11.6 32.5 11.95 31.17C12.04 30.83 12.13 30.48 12.31 30.19C12.44 29.96 12.72 29.82 12.93 29.65C13.08 29.85 13.29 30.03 13.38 30.27C13.72 31.08 14.17 31.32 15.16 31.02C14.84 30.9 14.61 30.82 14.38 30.73C13.98 30.57 13.68 30.31 13.64 29.85C13.58 29.38 13.8 29.04 14.18 28.79C15.02 28.21 16.7 28.2 17.56 28.77C18.01 29.06 18.1 29.59 17.77 29.99C17.53 30.28 17.17 30.39 16.91 30.23C16.51 29.98 16.83 29.75 16.95 29.53C16.64 29.26 16.39 29.32 16.26 29.66C16.07 30.15 16.37 30.64 16.89 30.72C17.66 30.83 18.31 30.23 18.26 29.46C18.22 28.69 17.85 28.16 17.05 28.06V28.07ZM2.61 37.3C2.47 37.57 0.720005 37.77 0.490005 37.57C0.320005 37.41 0.150001 37.24 0.360001 36.99C0.820001 36.43 1.26 35.86 1.73 35.26C2.01 35.7 2.46999 35.73 3.03999 35.54C3.06999 36.2 2.9 36.77 2.61 37.3ZM3.09 34.55C3.11 35.05 2.85999 35.35 2.42999 35.34C2.01999 35.33 1.73 34.96 1.73 34.5C1.73 33.82 1.75 33.13 1.66 32.44C1.56 31.54 1.13 30.79 0.389999 30.23C0.349999 30.19 0.319999 30.14 0.279999 30.11C0.289999 30.06 0.279999 30 0.279999 29.96C0.729999 29.89 1.17 29.8 1.62 29.77C1.94 29.75 2.15999 29.95 2.14999 30.3C2.15999 30.54 2.13 30.78 2.08 31.02C1.99 31.44 2.04 31.84 2.31 32.17C2.88 32.87 3.05 33.69 3.09 34.55ZM10.77 38.45C10.77 38.45 10.69 38.41 10.67 38.39C10.2 38.02 9.89 38.01 9.61 38.34C9.34 38.67 9.37999 39.18 9.75999 39.51C10.44 40.1 11.25 40.29 12.17 40.37C11.84 40.47 11.51 40.59 11.18 40.68C9.63999 41.05 8.16 40.41 7.56 39.14C6.9 37.77 7.88999 36.28 9.39999 36.35C10.4 36.39 11.14 37.5 10.77 38.45ZM9.19 34.55C9.23 34.73 9.24 34.92 9.25 35.11C9.27 35.82 9.16 35.92 8.55 36.08C7.69 36.31 7.04999 37.25 7.00999 38.25C6.99999 38.36 7 38.47 7 38.63C6.67 38.29 6.62999 37.94 6.75999 37.56C6.94999 37.02 7.17 36.5 7.38 35.98C7.97 34.57 7.76999 33.79 6.56999 32.87C6.45999 32.8 6.33 32.75 6.2 32.69C6.69 32.16 7.19 32.14 7.62 32.49C7.9 32.72 8.19999 32.95 8.50999 33.16C9.00999 33.5 9.07 34.03 9.19 34.55Z" fill="white"/>
<path d="M23.59 0.140015C23.37 0.820015 22.77 1.37001 21.99 1.48001C21.82 1.50001 21.64 1.50001 21.47 1.51001C21.29 2.84001 20.24 3.15001 19.24 3.42001C18.65 3.57001 18.01 3.52002 17.33 3.56002C17.35 4.56002 16.51 4.88002 15.69 5.20002C14.81 5.55002 13.99 5.41001 13.24 4.82001C12.77 5.67001 11.95 5.60001 11.19 5.57001C10.42 5.55001 9.62 5.53001 9.16 4.73001C8.22 5.11001 7.18999 4.66002 6.89999 3.06002C6.40999 3.19002 5.91999 3.33001 5.42999 3.46001C5.75999 4.58001 4.99 5.86001 3.72 6.30001C3.58 6.35001 3.42999 6.43002 3.28999 6.41002C2.50999 6.29002 2.28 6.92001 2.06 7.42001C1.96 7.63001 2.26 8.02001 2.39 8.32001C2.41 8.34001 2.56 8.34001 2.61 8.30001C3.19 7.86001 3.77 8.05001 4.34 8.30001C4.49 8.36001 4.64 8.43001 4.78 8.51001C5 8.64001 5.17001 8.60001 5.35001 8.42001C6.11001 7.63001 7.46999 7.38002 8.45999 7.84002C8.77999 7.98002 9.02 8.19001 9.06 8.62001C8.96 8.59001 8.86999 8.58002 8.81999 8.54002C8.23999 8.15002 7.59 8.06001 6.92 8.05001C6.04 8.05001 5.45 8.64002 5.44 9.59002C5.14 9.36002 4.87 9.18002 4.62 8.97002C3.78 8.27002 3.33999 8.25001 2.45999 8.89001C2.37999 8.95001 2.3 8.99002 2.16 9.06002C1.81 7.84002 1.3 6.85002 0 6.90002V5.97002C0.14 5.90002 0.259995 5.80002 0.369995 5.68002C0.829995 5.18002 1.07 4.58002 1.12 3.91002C1.17 3.34002 0.900002 2.99001 0.330002 2.87001C0.220002 2.85001 0.12 2.82002 0 2.79002V2.52002C0.47 2.36002 0.960005 2.52001 1.24001 2.94001C1.75001 3.74001 1.7 4.70001 1.06 5.42001C0.749998 5.77001 0.410001 6.07002 0.110001 6.36002C0.590001 6.56002 1.06999 6.78001 1.56999 6.96001C1.66999 7.00001 1.83 6.95001 1.94 6.89001C2.03 6.84001 2.1 6.72001 2.17 6.62001C2.51 6.10001 2.51 6.11001 3.13 6.08001C3.3 6.06001 3.47 5.98001 3.61 5.89001C3.94 5.66001 4.25 5.42002 4.56 5.18002C5 4.83002 5.18 4.16002 4.98 3.63002C4.94 3.53002 4.90001 3.43001 4.85001 3.28001C5.00001 3.25001 5.13 3.23001 5.25 3.19001C5.81 3.01001 6.41 2.89002 6.92 2.61002C7.92 2.07002 8 0.950016 7.16 0.180016C7.16 0.170016 7.13 0.150015 7.12 0.140015H7.61C7.61 0.140015 7.63 0.150015 7.64 0.160015C8.32 0.790015 8.20999 2.13002 7.39999 2.70002C7.11999 2.90002 7.08999 3.09002 7.17999 3.38002C7.48999 4.36002 8.36 4.72001 9.37 4.26001C9.39 4.71001 9.69 4.88002 10.06 5.00002C10.77 5.25002 11.49 5.27002 12.23 5.18002C12.64 5.13002 12.86 4.85002 12.94 4.40002C13.26 4.55002 13.58 4.67002 13.86 4.84002C14.68 5.36002 16.34 4.80002 16.72 4.13002C16.91 3.79002 16.99 3.39002 17.12 3.00002C18.32 3.55002 19.44 3.07001 20.54 2.46001C20.96 2.23001 21.03 2.01001 21.05 1.21001C21.83 1.32001 22.52 1.15001 23 0.510014C23.09 0.390014 23.16 0.270015 23.21 0.140015H23.59Z" fill="white"/>
<path d="M3.78 18.05C2.91 17.91 2.14 18.21 1.41 18.62C0.930004 18.9 0.47 19.19 0 19.48V19.84C0.51 19.53 1.03 19.22 1.55 18.91C2.41 18.41 3.32999 18.2 4.31999 18.46C4.41999 18.48 4.52 18.48 4.62 18.48C4.62 18.44 4.64 18.4 4.66 18.35C4.36 18.25 4.08 18.09 3.78 18.05ZM3.58 20.15C2.51 19.82 1.52 19.96 0.610001 20.61C0.390001 20.77 0.19 20.94 0 21.12V21.51C1 20.44 2.2 19.94 3.67 20.49C3.83 20.55 4.00999 20.57 4.17999 20.6C4.24999 20.6 4.31999 20.56 4.39999 20.54C4.12999 20.35 3.85 20.24 3.58 20.15ZM2.73 21.54C2.08 21.08 1.16 21.04 0.479996 21.55C0.309996 21.68 0.15 21.83 0 21.99V22.47C0.15 22.3 0.309996 22.12 0.479996 21.97C0.929996 21.58 1.45999 21.45 2.03999 21.59C2.37999 21.67 2.64 21.88 2.63 22.27C2.63 22.65 2.32001 22.73 1.99001 22.83C1.59001 22.95 1.17 23.09 0.830002 23.33C0.530002 23.56 0.27 23.82 0 24.08V24.62C0.06 24.57 0.109998 24.51 0.169998 24.45C0.839998 23.73 1.53 23.07 2.55 22.85C2.75 22.81 2.93 22.5 3.02 22.28C3.15 21.99 2.99 21.73 2.73 21.54Z" fill="white"/>
<path d="M13.19 16.87C13.07 16.73 12.95 16.61 12.84 16.47C12.54 16.07 12.13 15.9 11.66 15.83C10.8 15.71 10 15.85 9.23003 16.27C8.80003 16.51 8.34003 16.73 7.87003 16.89C7.48003 17.03 7.27003 16.81 7.34003 16.45C7.39003 16.16 7.46003 15.86 7.16003 15.68C6.83003 15.49 6.48002 15.51 6.15002 15.69C5.21002 16.23 5.02003 17.81 5.78003 18.57C6.52003 19.29 8.16003 19.75 9.01003 18.92C9.06003 18.87 9.15002 18.84 9.18002 18.83C9.30002 19.45 9.43003 20.05 9.55003 20.65C9.48003 20.64 9.40003 20.62 9.31003 20.59C7.90003 20.04 6.61003 20.38 5.39003 21.12C5.09003 21.3 4.85004 21.56 4.60004 21.8C4.43004 21.96 4.41003 22.1 4.66003 22.24C5.06003 22.49 5.10003 22.81 4.70003 23.06C4.30003 23.31 3.83003 23.48 3.36003 23.6C2.84003 23.74 2.30003 23.77 1.77003 23.87C1.32003 23.96 1.01004 24.22 0.850037 24.68C1.58004 24.04 2.46004 23.97 3.35004 23.87C3.72004 23.83 4.09003 23.71 4.45003 23.58C5.17003 23.3 5.36003 22.9 5.11003 22.18C5.03003 21.93 5.07003 21.75 5.28003 21.62C5.70003 21.36 6.11003 21.05 6.56003 20.86C7.41003 20.5 8.27003 20.64 9.08003 21.07H8.90002C7.66002 21.16 6.63003 21.68 5.81003 22.61C5.61003 22.83 5.47003 23.17 5.42003 23.47C5.31003 24.05 5.24002 24.18 4.68002 24.34C2.94002 24.81 1.90004 26.57 2.38004 28.31C2.62004 29.22 3.10003 29.96 4.09003 30.19C4.32003 30.24 4.58002 30.17 4.82002 30.15C4.82002 30.11 4.83002 30.07 4.82002 30.02C4.67002 29.96 4.51004 29.89 4.35004 29.85C3.32004 29.58 2.66002 28.79 2.57002 27.73C2.45002 26.24 3.76004 24.65 5.24004 24.51C5.53004 24.49 5.72003 24.4 5.77003 24.08C6.01003 22.6 6.83003 21.77 8.33003 21.58C8.98003 21.51 9.64003 21.6 10.31 21.66C10.95 21.71 11.55 21.66 12.07 21.24C12.38 20.99 12.67 20.73 12.96 20.47C14.02 19.5 14.12 17.94 13.19 16.87ZM9.08003 18.48C8.18003 19.26 6.90003 19.21 6.05003 18.35C5.50003 17.79 5.45002 16.85 5.96002 16.29C6.29002 15.92 6.58003 15.87 7.05003 16.07C7.02003 16.26 6.94003 16.48 6.97003 16.67C7.04003 17.06 7.51002 17.3 7.90002 17.15C8.39002 16.97 8.86003 16.74 9.34003 16.51C10.29 16.06 11.26 15.98 12.24 16.42C12.36 16.46 12.47 16.53 12.58 16.6C12.59 16.63 12.58 16.67 12.58 16.7C11.32 16.45 10.47 17.1 9.68002 17.93C9.50002 18.12 9.29003 18.3 9.08003 18.48ZM10.95 20.88C9.88003 20.65 9.25003 19.52 9.75003 18.55C10.23 17.61 11.03 17.13 11.74 17.05C12.81 16.96 13.41 17.42 13.53 18.19C13.77 19.76 12 21.09 10.95 20.88Z" fill="white"/>
<path d="M15.9601 39.23C15.6401 39.23 15.3601 39.32 15.2101 39.62C15.1301 39.79 15.1501 40 15.1201 40.19C15.1601 40.2 15.2101 40.21 15.2401 40.21C15.2901 40.15 15.3401 40.09 15.3801 40.02C15.7101 39.5 16.1401 39.43 16.5801 39.87C16.7401 40.03 16.8701 40.26 16.9401 40.48C17.0801 40.9 16.9801 41.05 16.5501 41.06C15.8201 41.1 15.1701 41.36 14.5901 41.78C14.2801 41.99 13.9901 42.23 13.6801 42.46C13.1201 42.88 12.5601 43.28 11.96 43.73C11.89 43.53 11.8501 43.4 11.8101 43.27C11.6601 42.87 11.2501 42.65 10.8401 42.75C10.4401 42.86 10.3501 43.06 10.4901 43.3C10.3501 43.6 10.1601 43.81 10.1701 44C10.1801 44.33 10.5001 44.35 10.7601 44.37C10.9301 44.38 11.1101 44.37 11.2801 44.34C12.0701 44.17 12.7401 43.77 13.3601 43.27C13.6701 43.02 13.9701 42.96 14.3701 43.06C15.8001 43.43 17.3401 42.27 17.3801 40.83C17.4001 40 16.7601 39.26 15.9601 39.23ZM14.2501 42.57C14.9901 41.9 15.7801 41.42 16.8301 41.34C16.4501 42.46 15.1401 43.08 14.2501 42.57Z" fill="white"/>
<path d="M28.09 8.4C27.76 8.59 27.38 8.72999 27 8.79999C26.12 8.96999 25.55 9.50999 25.19 10.28C24.97 10.73 24.8 11.2 24.62 11.67C24.1 13.06 22.95 13.95 21.68 13.89C21.44 13.88 21.2 13.78 20.96 13.73C20.97 13.69 20.97 13.65 20.97 13.62C21.06 13.61 21.14 13.6 21.23 13.6C21.97 13.59 22.26 13.35 22.46 12.59C22.62 12 22.36 11.35 21.89 11.02C21.17 10.5 20.38 10.33 19.5 10.55C19.48 10.52 19.46 10.48 19.44 10.45C19.62 10.14 19.8001 9.84 19.9901 9.54C20.5801 8.65 20.14 7.27999 19.14 6.90999C18.51 6.66999 18 6.89 17.55 7.36C17.59 6.87 17.93 6.56999 18.46 6.50999C19.5 6.38999 20.41 7.15999 20.59 8.25999C20.69 8.94999 20.44 9.51 20.03 10.06C20.98 10.14 21.85 10.34 22.43 11.08C23.09 11.91 22.8 12.73 22.16 13.56C23.22 13.32 23.85 12.74 24.23 11.85C24.51 11.2 24.7901 10.55 25.1001 9.91999C25.4201 9.24999 25.97 8.83999 26.7 8.66999C27.1 8.56999 27.49 8.44999 27.84 8.24999C28.05 8.12999 28.24 7.87999 28.32 7.63999C28.46 7.24999 28.22 7.04999 27.76 7.16999C28.04 6.79999 28.31 6.81999 28.48 7.17999C28.67 7.57999 28.53 8.14 28.09 8.4Z" fill="white"/>
<path d="M30.26 1.57997C30.27 1.99997 29.96 2.17997 29.61 2.00997C29.7 1.76997 29.91 1.49997 29.84 1.36997C29.74 1.16997 29.47 0.95997 29.23 0.91997C28.26 0.71997 27.43 1.08997 26.78 1.77997C26.19 2.38997 25.65 3.05997 25.17 3.75997C24.28 5.03997 23.02 5.49997 21.55 5.61997C20.62 5.68997 19.68 5.77997 18.84 5.85997C19.18 5.57997 19.7 5.45997 20.26 5.38997C21.19 5.28997 22.11 5.14997 23.02 4.95997C23.89 4.76997 24.44 4.10997 24.99 3.46997C25.62 2.73997 26.22 1.98997 26.9 1.30997C27.63 0.559973 28.55 0.359972 29.55 0.679972C30 0.829972 30.24 1.15997 30.26 1.57997Z" fill="white"/>
<path d="M31.02 8.57002C30.84 8.54002 30.65 8.54002 30.47 8.49002C29.67 8.27002 28.98 8.52002 28.32 8.95002C27.55 9.44002 26.99 10.13 26.46 10.86C25.67 11.94 24.92 13.06 23.82 13.87C22.72 14.68 21.53 14.87 20.25 14.39C20.16 14.35 20.09 14.31 20.02 14.28C20.64 14.28 21.27 14.32 21.89 14.28C22.88 14.23 23.69 13.76 24.33 13.04C24.85 12.45 25.31 11.81 25.79 11.2C26.29 10.56 26.74 9.87002 27.3 9.29002C28.17 8.40002 29.25 7.97002 30.51 8.26002C30.7 8.30002 30.87 8.41002 31.02 8.56002V8.57002Z" fill="white"/>
<path d="M23.09 22.3C23.06 22.44 23.0601 22.61 22.9901 22.72C22.4801 23.44 20.98 23.7 20.25 23.21C19.84 22.94 19.78 22.64 20.05 22.22C20.34 21.78 20.31 21.61 19.84 21.41C18.88 21 18.02 21.3 17.19 21.82C17.07 21.89 16.94 21.95 16.81 22.02C16.79 21.98 16.7601 21.93 16.7401 21.89C17.1201 21.23 17.78 20.97 18.47 20.88C18.99 20.82 19.55 20.91 20.06 21.04C20.68 21.2 20.83 21.67 20.54 22.25C20.27 22.78 20.31 22.85 20.89 23.01C21.58 23.2 22.17 23 22.68 22.53C22.78 22.44 22.87 22.35 22.96 22.26C23.01 22.27 23.05 22.29 23.09 22.3Z" fill="white"/>
<path d="M30.98 11.23C30.93 11.15 30.88 11.09 30.85 11.02C30.51 10.22 29.89 9.92997 29.05 10.2C28.27 10.45 27.61 10.91 27.08 11.52C26.11 12.62 25.1 13.67 23.93 14.57C22.95 15.33 21.9 15.65 20.59 15.34C23.21 15.43 24.72 13.77 26.21 12.11C26.9 11.34 27.59 10.58 28.5 10.06C29.23 9.63997 29.97 9.74997 30.68 10.1C31.07 10.3 31.16 10.68 30.98 11.23Z" fill="white"/>
<path d="M3.55 17.74C3.52 17.42 3.55 17.1 3.48 16.81C3.27 16.03 2.54 15.58 1.72 15.7C1.11 15.79 0.54 16 0 16.29V15.81C0.6 15.49 1.26 15.3 1.97 15.3C2.78 15.3 3.43001 15.69 3.85001 16.4C4.16001 16.92 4.01 17.48 3.55 17.74Z" fill="white"/>
<path d="M28.82 17.66C28.74 18.27 28.41 18.68 27.87 18.8C27.57 18.87 27.2601 18.89 26.9501 18.89C26.5301 18.89 26.2901 19.08 26.2701 19.5C26.2501 19.73 26.2401 19.96 26.2001 20.19C26.1301 20.6 25.8601 20.83 25.4501 20.85C25.1601 20.87 24.9501 20.78 24.8901 20.46C24.8601 20.33 24.8201 20.2 24.7801 20.07C24.7001 19.8 24.5101 19.73 24.2401 19.79C23.1501 20.03 22.7101 20.74 22.9901 21.82C23.0101 21.9 23.0301 21.98 23.0601 22.05C23.0101 22.08 22.97 22.1 22.93 22.13C22.81 21.93 22.6201 21.73 22.5801 21.51C22.3701 20.38 23.4501 19.32 24.5901 19.53C24.7401 19.56 24.8801 19.76 25.0001 19.9C25.0601 19.98 25.0301 20.13 25.1001 20.2C25.2101 20.32 25.3601 20.48 25.5001 20.47C25.6301 20.47 25.8101 20.32 25.8801 20.18C25.9601 20.01 25.9701 19.79 25.9901 19.59C26.0501 18.82 26.3101 18.52 27.0601 18.61C27.8401 18.71 28.3401 18.43 28.7001 17.79C28.7201 17.75 28.77 17.72 28.82 17.66Z" fill="white"/>
<path d="M28.6001 3.99004C28.5401 4.28004 28.3601 4.43004 28.0601 4.44004C27.7901 4.45004 27.7201 4.33004 27.8701 4.18004C28.0201 4.11004 28.2301 4.08004 28.3001 3.96004C28.4401 3.69004 28.2701 3.31004 27.9901 3.29004C27.6501 3.27004 27.2901 3.32004 26.9701 3.43004C26.1301 3.71004 25.6301 4.42004 25.0701 5.04004C24.3601 5.84004 23.4801 6.37004 22.4401 6.62004C22.1101 6.70004 21.7701 6.70004 21.4401 6.74004C21.4401 6.71004 21.4401 6.69004 21.4401 6.67004C21.7501 6.61004 22.0501 6.55004 22.3501 6.48004C23.4501 6.22004 24.3501 5.61004 25.0901 4.77004C25.3801 4.43004 25.6801 4.09004 25.9801 3.76004C26.4201 3.26004 26.9801 2.99004 27.6401 2.91004C28.3301 2.83004 28.7601 3.30004 28.6101 3.99004H28.6001Z" fill="white"/>
<path d="M0.130005 48.45C0.100005 48.56 0.06 48.66 0 48.74V47.95C0.13 48.07 0.190005 48.25 0.130005 48.45Z" fill="white"/>
<path d="M0.619995 26.09C0.419995 26.25 0.21 26.39 0 26.51V26.23C0 26.23 0.0700061 26.2 0.100006 26.18C0.480006 25.98 0.669993 25.71 0.539993 25.26C0.519993 25.17 0.609994 25.05 0.649994 24.94C0.749994 25.04 0.920002 25.12 0.940002 25.23C1 25.56 0.909995 25.86 0.619995 26.09Z" fill="white"/>
<path d="M23.92 24.52C23.49 24.72 22.98 24.79 22.51 24.92C22.49 24.86 22.47 24.81 22.45 24.75C22.55 24.69 22.64 24.62 22.75 24.58C22.99 24.5 23.25 24.45 23.49 24.36C24.39 24.06 24.65 23.43 24.2 22.6C24.04 22.31 24.03 22.05 24.21 21.8C24.32 22.11 24.4 22.42 24.53 22.71C24.9 23.5 24.72 24.16 23.92 24.52Z" fill="white"/>
<path d="M0.759995 45.72C0.519995 45.83 0.26 45.95 0 46.06V45.71C0.25 45.6 0.509995 45.6 0.759995 45.72Z" fill="white"/>
<path d="M21.52 12.76C21.32 12.92 21.21 13.07 21.11 13.07C21.01 13.06 20.88 12.91 20.85 12.8C20.83 12.74 20.99 12.56 21.08 12.55C21.18 12.54 21.3 12.65 21.52 12.76Z" fill="white"/>
<path d="M19.1201 14.26C19.0801 14.53 18.9101 14.64 18.6201 14.56C18.5601 14.3 18.6001 14.08 18.9001 14.04C18.9701 14.04 19.1301 14.19 19.1201 14.26Z" fill="white"/>
<path d="M20.34 12.38C20.34 12.46 20.22 12.54 20.15 12.63C20.07 12.55 19.94 12.49 19.92 12.4C19.91 12.33 20.01 12.22 20.11 12.05C20.23 12.21 20.34 12.29 20.34 12.38Z" fill="white"/>
<path d="M12.3801 18.39C12.4101 18.72 12.06 19.13 11.73 19.15C11.4 19.17 10.9901 18.77 10.9701 18.39C10.9401 18.03 11.21 17.72 11.56 17.71C11.94 17.69 12.3601 18.03 12.3801 18.39Z" fill="white"/>
<path d="M0.459991 76.83C0.349991 76.9 0.21 76.98 0 77.11V76.83H0.459991Z" fill="white"/>
<path d="M0.459991 76.83C0.349991 76.9 0.21 76.98 0 77.11V76.83H0.459991Z" fill="black"/>
<path d="M31.08 19.31H40.69C40.69 19.31 40.72 19.39 40.72 19.44C40.75 19.54 40.77 19.65 40.78 19.77C40.8 19.98 40.8 20.13 40.8 20.15C40.8 20.41 40.84 33.18 40.92 51.39C40.92 51.97 41.24 52.5 41.75 52.77C44.6 54.29 47.46 55.8 50.31 57.32C43.92 57.34 37.53 57.36 31.14 57.38V41.54C31.14 40.39 31.14 39.25 31.14 38.1C31.14 32.07 31.13 26.05 31.14 20.02C31.14 19.76 31.14 19.52 31.08 19.31Z" fill="white"/>
<path d="M31.08 57.38H40.69C40.69 57.38 40.72 57.3 40.72 57.25C40.75 57.15 40.77 57.04 40.78 56.92C40.8 56.71 40.8 56.56 40.8 56.54C40.8 56.28 40.84 43.51 40.92 25.3C40.92 24.72 41.24 24.19 41.75 23.92C44.6 22.4 47.46 20.89 50.31 19.37C43.92 19.35 37.53 19.33 31.14 19.31V35.15C31.14 36.3 31.14 37.44 31.14 38.59C31.14 44.62 31.13 50.64 31.14 56.67C31.14 56.93 31.14 57.17 31.08 57.38Z" fill="white"/>
</svg>
